<svg xmlns="http://www.w3.org/2000/svg" xmlns:xlink="http://www.w3.org/1999/xlink" viewBox="0 0 1440 2560"><defs><style>.cls-1{fill:none;}.cls-2{clip-path:url(#clip-path);}.cls-3{fill:#414140;}.cls-10,.cls-11,.cls-30,.cls-31,.cls-32,.cls-33,.cls-34,.cls-4,.cls-5,.cls-6,.cls-7,.cls-8,.cls-9{fill:#292929;}.cls-4{opacity:0.63;}.cls-5{opacity:0.7;}.cls-27,.cls-6{opacity:0.6;}.cls-7{opacity:0.32;}.cls-8{opacity:0.75;}.cls-9{opacity:0.82;}.cls-11,.cls-15,.cls-19{opacity:0.5;}.cls-12,.cls-13,.cls-14,.cls-15,.cls-35,.cls-36{fill:#b0b0b0;}.cls-12{opacity:0.62;}.cls-14{opacity:0.61;}.cls-16,.cls-17,.cls-18,.cls-19,.cls-20,.cls-21,.cls-22,.cls-23,.cls-24,.cls-25,.cls-26,.cls-27,.cls-28,.cls-29,.cls-37,.cls-38,.cls-39,.cls-40,.cls-41,.cls-42,.cls-43,.cls-44,.cls-45,.cls-46,.cls-47,.cls-48,.cls-49,.cls-50,.cls-51,.cls-52,.cls-53,.cls-54,.cls-55,.cls-56,.cls-57,.cls-58,.cls-59,.cls-60,.cls-61{fill:#3a3a3a;}.cls-16{opacity:0.22;}.cls-17{opacity:0.45;}.cls-18{opacity:0.19;}.cls-20{opacity:0.3;}.cls-21{opacity:0.12;}.cls-22{opacity:0.11;}.cls-23{opacity:0.29;}.cls-24{opacity:0.14;}.cls-25{opacity:0.39;}.cls-26{opacity:0.1;}.cls-28{opacity:0.34;}.cls-29{opacity:0.16;}.cls-30{opacity:0.65;}.cls-31{opacity:0.66;}.cls-32{opacity:0.68;}.cls-33,.cls-39{opacity:0.77;}.cls-34{opacity:0.8;}.cls-35{opacity:0.43;}.cls-36,.cls-59{opacity:0.18;}.cls-38{opacity:0.44;}.cls-40{opacity:0.37;}.cls-41{opacity:0.46;}.cls-42{opacity:0.21;}.cls-43{opacity:0.07;}.cls-44{opacity:0.36;}.cls-45{opacity:0.23;}.cls-46{opacity:0.58;}.cls-47{opacity:0.09;}.cls-48{opacity:0.28;}.cls-49{opacity:0.24;}.cls-50{opacity:0.2;}.cls-51{opacity:0.47;}.cls-52{opacity:0;}.cls-53{opacity:0.87;}.cls-54{opacity:0.74;}.cls-55{opacity:0.81;}.cls-56{opacity:0.48;}.cls-57{opacity:0.51;}.cls-58{opacity:0.13;}.cls-60{opacity:0.35;}.cls-61{opacity:0.15;}</style><clipPath id="clip-path"><rect class="cls-1" width="1441" height="2559"/></clipPath></defs><g id="Layer_14" data-name="Layer 14"><g class="cls-2"><g id="Right"><g id="col1"><polygon class="cls-3" points="936.148 10.003 965.624 69.958 951.397 103.015 991.029 203.838 1023.547 231.937 1125.166 471.6 1259.188 421.11 1359.208 546.421 1418.68 555.215 1383.401 625.432 1320.276 760.848 1335.493 805.384 1392.999 939.94 1378.199 1036.873 1348.395 1133.402 1403.812 1467.564 1382.186 1788.535 1309.198 2085.323 1403 2333 1437.803 2421.861 1481.499 2435.084 1444.361 2373.318 1468.69 1346.65 1452.471 -25.171 944.258 -3.187 936.148 10.003"/></g><g id="col2"><polygon class="cls-4" points="1430.845 2393.104 1309.098 2084.778 1360.924 1874.866 1426.976 2002.135 1465.987 2338.143 1430.845 2393.104"/><polygon class="cls-5" points="1436.251 1447.778 1404.213 1475.198 1348.395 1133.402 1378.199 1036.873 1392.999 939.94 1454.414 992.246 1488.965 1071.846 1436.251 1447.778"/><polygon class="cls-6" points="1429.493 553.016 1359.208 546.421 1259.188 421.11 929.041 -1.114 1493.02 -42.759 1484.91 434.301 1429.493 553.016"/><polygon class="cls-7" points="1309.098 2084.778 1476.77 2417 1426.976 2393.86 1309.098 2084.778"/><polygon class="cls-8" points="1316.211 759.195 1372.102 782.335 1531.644 975.718 1512.337 1215.381 1316.211 759.195"/><polygon class="cls-9" points="1127.199 481.517 1259.304 420.361 1266.418 430.278 1453.397 13.761 1384.296 -93.674 1141.426 436.89 1127.199 481.517"/><polygon class="cls-10" points="1371.086 1833.545 1382.264 1788.918 1389.377 1683.136 1441.203 1926.105 1371.086 1833.545"/><line class="cls-10" x1="1345.5824" y1="1937.3744" x2="1309.0977" y2="2084.7778"/><polygon class="cls-10" points="1372.102 2043.457 1434.09 2205.436 1309.098 2084.778 1372.102 2043.457 1372.102 2043.457"/><polyline class="cls-10" points="1348.729 1132.738 1466.512 1438.568 1536.725 1319.51 1408.685 1068.277 1348.729 1132.738"/><line class="cls-10" x1="1348.7293" y1="1132.7382" x2="1408.6848" y2="1068.2772"/><polyline class="cls-10" points="1393.442 939.355 1468.64 1020.345 1316.211 759.195 1393.442 939.355"/><polyline class="cls-10" points="1274.547 440.196 1408.685 483.17 1531.644 564.159 1366.005 547.631 1274.547 440.196"/><polygon class="cls-11" points="1102.81 352.595 1471.689 8.803 1031.676 250.118 1110.94 446.807 1102.81 352.595"/><polygon class="cls-10" points="1079.438 332.761 1202.397 350.942 1366.005 -52.353 1355.843 -55.658 1119.069 321.191 1088.583 322.843 1079.438 332.761"/><polyline class="cls-4" points="1134.312 264.994 1172.928 -93.674 951.397 104.668 1134.312 264.994"/></g><g id="col3"><polygon class="cls-12" points="1125.376 482.666 1259.188 421.11 1204.43 347.636 1112.972 332.761 1052 299.704 1125.376 482.666"/><polygon class="cls-13" points="1125.376 482.666 1172.928 415.403 1049.968 298.051 1125.376 482.666"/><polygon class="cls-13" points="1336.535 810.433 1374.134 783.988 1395.474 598.869 1315.956 759.669 1336.535 810.433"/><polygon class="cls-13" points="1370.069 1817.017 1366.005 1754.209 1389.377 1683.136 1399.539 1803.794 1371.086 1833.545 1370.069 1817.017"/><polygon class="cls-13" points="1348.729 1132.738 1393.442 939.355 1408.685 1068.277 1348.729 1132.738"/><polygon class="cls-13" points="1360.924 1874.866 1372.102 2043.457 1309.098 2084.778 1309.098 2084.778 1329.422 1964.12 1360.924 1874.866"/><polygon class="cls-13" points="1266.418 430.278 1313.162 537.713 1366.172 547.994 1342.632 499.698 1266.418 430.278"/><polygon class="cls-14" points="1252.191 423.667 1157.685 415.403 1125.166 483.17 1252.191 423.667"/><polygon class="cls-13" points="991.029 203.838 1137.361 264.994 1052 121.196 951.397 103.015 991.029 203.838"/><polygon class="cls-15" points="1049.968 298.051 1172.928 415.403 1202.397 347.636 1112.972 332.761 1049.968 298.051"/></g><g id="col4"><polygon class="cls-16" points="1137.361 264.994 1016.434 179.046 1052 121.196 1137.361 264.994"/><polygon class="cls-17" points="951.397 103.015 1052 121.196 1016.434 179.046 951.397 103.015"/><polygon class="cls-18" points="1016.434 179.046 991.029 203.838 951.397 104.668 1016.434 179.046"/><polygon class="cls-18" points="1266.418 430.278 1331.454 527.796 1342.632 499.698 1266.418 430.278"/><polygon class="cls-19" points="1331.454 527.796 1366.005 547.631 1342.632 499.698 1331.454 527.796"/><polygon class="cls-20" points="1313.162 537.713 1331.454 527.796 1366.005 547.631 1313.162 537.713"/><polyline class="cls-21" points="1396.49 600.522 1342.632 759.195 1374.134 783.988 1396.49 600.522"/><polygon class="cls-22" points="1316.211 759.195 1342.632 759.195 1336.535 810.433 1316.211 759.195"/><polygon class="cls-23" points="1336.535 810.433 1374.134 783.988 1342.632 759.195 1336.535 810.433"/><polygon class="cls-24" points="1393.442 939.355 1387.345 1060.013 1372.61 1028.375 1393.442 939.355"/><polygon class="cls-25" points="1408.685 1068.277 1393.442 939.355 1387.345 1060.013 1408.685 1068.277"/><polygon class="cls-16" points="1387.345 1060.013 1408.685 1068.277 1348.729 1132.738 1387.345 1060.013"/><polygon class="cls-26" points="1382.264 1769.084 1389.377 1684.789 1366.005 1754.209 1382.264 1769.084"/><polygon class="cls-27" points="1382.264 1769.084 1389.254 1684.589 1399.539 1803.794 1382.264 1769.084"/><polygon class="cls-28" points="1371.086 1833.545 1382.264 1769.084 1399.539 1803.794 1371.086 1833.545"/><polygon class="cls-29" points="1309.098 2084.778 1329.422 1964.12 1350.762 1980.648 1309.098 2084.778"/><polygon class="cls-22" points="1350.762 1980.648 1360.924 1874.866 1372.102 2043.457 1350.762 1980.648"/><polygon class="cls-25" points="1350.762 1980.648 1309.098 2084.778 1372.102 2043.457 1350.762 1980.648"/></g></g><g id="Bottom"><g id="col1-2" data-name="col1"><path class="cls-3" d="M-139.2834,2394.7487,108.113,2209.8664,173,2261l45.51,27.3416,118.3779-41.2327L432,2284l90.0721,19.626,42.2612-17.9446,14.631,23.9416,112.9128-9.4094c26.2542-2.1878,2.8049-1.2313,2.8049-1.2313L781,2251.0664c3.99,2.66,24.894,21.3526,28.1414,20.1995l112.9857-40.1181,159.6106,41.2328L1129,2341.0664l77.766,112.2062,123.6982,6.65L1464.8032,2565l-1633.3486,18.6212Z"/><path class="cls-3" d="M-146,2398l254-190,64,54,46.51,24.2753L337,2243l3,3,94,38,88.0721,17.56,42.2612-17.9446,14.631,23.9416S645.8048,2300.6147,693,2298c.1952-.0108,1-1,1-1l87-48c3.99,2.66,24.894,21.3526,28.1414,20.2l112.9857-40.1181,51.1084,13.203,32.6872-6.5526h5.32l10.6407,19.9513,59.854,14.631L1127,2340l79.766,111.2062,123.6982,6.65,134.339,105.0769-1633.3486,18.6213Z"/></g><g id="col2-2" data-name="col2"><path class="cls-5" d="M545.7121,2308.8868C509.3606,2297.864,434,2284,434,2284s-66.8882-28.0425-97-41l-118.49,43.2753-396.3663,156.95,23.1936,138.1709,482.24.1583Z"/><polygon class="cls-30" points="-149 2401 108 2208 172 2262 218.51 2286.275 0.376 2569.584 -147.264 2569.584 -149 2401"/><polygon class="cls-31" points="1193.465 2431.255 1206.766 2451.206 1330.464 2457.857 1464.803 2560.273 1471.454 2581.555 1298.542 2560.273 952.719 2560.273 1193.465 2431.255"/><polygon class="cls-32" points="922.127 2229.081 726.604 2424.604 670.74 2675.991 1273.27 2455.196 1206.766 2451.206 1081.738 2270.314 1021.884 2255.683 1005.923 2261.004 987 2249 972.67 2242.382 959.37 2238.392 922.127 2229.081"/><polygon class="cls-33" points="695.241 2297.276 738.575 2294.256 809 2269 400.732 2573.574 695.241 2297.276"/><polygon class="cls-10" points="567.98 2305.784 7.545 2560.273 511 2297 521.77 2300.906 564.333 2283.615 567.98 2305.784"/><polygon class="cls-34" points="922.127 2230.412 958.081 2238.717 472.557 2630.768 415.363 2546.973 666.75 2375.391 863.603 2262.334 922.127 2229.081 922.127 2229.081 922.127 2230.412"/><polygon class="cls-10" points="758.526 2557.613 713.303 2412.634 649.459 2447.216 273.044 2576.235 533.741 2648.059 758.526 2557.613"/><polygon class="cls-10" points="101.463 2508.4 38.948 2491.109 -209.778 2560.273 -111.352 2675.991 101.463 2508.4"/></g><g id="col3-2" data-name="col3"><polygon class="cls-13" points="1330 2453 1471 2564 1177 2621 1330 2453"/><polygon class="cls-13" points="1083 2269 1130.951 2335.489 1210 2451 837.001 2566.924 1083 2269"/><polygon class="cls-13" points="108 2208 35.623 2358.694 218.51 2286.275 174 2260 108 2208"/><polygon class="cls-13" points="337 2243 266.04 2425.259 511.13 2296.916 434 2282 337 2243"/><polygon class="cls-13" points="533.517 2321.433 578.964 2307.557 564.333 2283.615 533.517 2321.433"/><polygon class="cls-13" points="809 2269 781 2249 739.905 2294.256 809 2269"/><polygon class="cls-13" points="922 2229 910.156 2239.722 903.506 2271.644 959.37 2238.392 922 2229"/><polygon class="cls-13" points="746.555 2449.876 763.847 2560.273 621.527 2648.059 533.741 2610.817 658 2558 683 2541 713.303 2412.634 746.555 2449.876"/><polygon class="cls-13" points="101.463 2508.4 146.759 2574.382 -55.488 2621.458 38.948 2491.109 101.463 2508.4"/><polygon class="cls-13" points="1012 2235 1005.923 2235.732 988 2306 1023 2256 1012 2235"/><polygon class="cls-35" points="1082 2270 1023.214 2255.683 1001.932 2282.285 967 2341 1082 2270"/><polygon class="cls-36" points="987 2249 988 2306 1001 2255 1005.923 2235.732 987 2249"/><polygon class="cls-13" points="1330 2453 1282 2455 1234 2565 1345 2486 1330 2453"/></g><g id="col4-2" data-name="col4"><polygon class="cls-37" points="713.303 2412.634 649.459 2447.216 660.1 2487.119 683 2541 713.303 2412.634"/><polygon class="cls-38" points="1298 2492 1282 2455 1235 2558 1271 2521 1298 2492"/><polygon class="cls-37" points="1081.738 2270.314 965 2342 842.489 2560.273 1081.738 2270.314"/><polygon class="cls-37" points="543.052 2292.261 533.741 2320.858 564.333 2283.615 543.052 2292.261"/><polygon class="cls-37" points="35 2359 45.636 2254.658 108 2208 35 2359"/><polygon class="cls-39" points="649.459 2447.216 560.343 2477.808 683 2541 649.459 2447.216"/><polygon class="cls-40" points="1282 2455 1271 2521 1233 2560 1282 2455"/><polygon class="cls-41" points="319.611 2560.273 560.343 2477.808 683 2541 319.611 2560.273"/><polygon class="cls-42" points="1298 2492 1464.803 2558 1218 2575 1298 2492"/><polygon class="cls-43" points="1298 2492 1309 2469 1461.472 2556.702 1298 2492"/><polygon class="cls-44" points="1282 2455 1309 2469 1298 2492 1282 2455"/><polygon class="cls-22" points="1330 2453 1309 2469 1282 2455 1330 2453"/><polygon class="cls-19" points="1271 2521 1464.309 2557.109 1218 2575 1271 2521"/><polygon class="cls-45" points="1066 2409 835 2569 1083 2269 1066 2409"/><polygon class="cls-46" points="1066 2409 1207 2453 835 2569 1066 2409"/><polygon class="cls-47" points="1118 2354 1066 2409 1083 2269 1118 2354"/><polygon class="cls-48" points="1118 2354 1212 2455 1066 2409 1118 2354"/><path class="cls-43" d="M1118,2354l91,98s3.033,1.0482,3,1l-76-110.1335Z"/><polygon class="cls-40" points="1009 2252 988 2306 1000 2258 1009 2252"/><polygon class="cls-24" points="1000 2258 1009 2252 1006 2236 1000 2258"/><polygon class="cls-49" points="1009 2252 1023 2256 988 2306 1009 2252"/><polygon class="cls-16" points="1006 2236 1009 2252 1012 2235 1006 2236"/><polygon class="cls-20" points="713 2519 683 2541 713 2413 713 2519"/><polygon class="cls-50" points="747 2450 713 2519 763.847 2558.943 747 2450"/><polygon class="cls-51" points="768 2562 713 2519 683 2541 768 2562"/><polygon class="cls-52" points="46 2536 101 2508 137.074 2560.273 46 2536"/><polygon class="cls-53" points="18 2519 -19.374 2571.61 48 2574 46 2536 18 2519"/><polygon class="cls-54" points="48 2579 46 2536 151 2568 48 2579"/><polygon class="cls-22" points="100.016 2508 53 2511 46 2536 100.016 2508"/><polygon class="cls-19" points="18 2519 53 2511 46 2536 18 2519"/><polygon class="cls-50" points="39 2491 53 2511 18 2519 39 2491"/><polygon class="cls-44" points="101 2508 90 2530 46 2536 101 2508"/><polygon class="cls-55" points="137.074 2560.273 90 2530 46 2536 139.989 2564.714 137.074 2560.273"/><polygon class="cls-16" points="922.127 2231.148 924 2246 910 2240 922 2229 922.127 2231.148"/><polygon class="cls-56" points="960 2238 924 2246 903 2273 960 2238"/><polygon class="cls-55" points="924 2246 903 2273 910.156 2239.722 924 2246"/><polygon class="cls-57" points="362 2337 266 2425 511 2298 362 2337"/><polygon class="cls-28" points="418 2307 362 2337 511 2298 418 2307"/><polygon class="cls-58" points="435 2282 417 2307 514 2298 435 2282"/><polygon class="cls-59" points="337 2243 418 2307 362 2337 337 2243"/><polygon class="cls-60" points="337 2243 362 2337 266 2425 337 2243"/><polygon class="cls-51" points="108 2208 127 2284 35 2359 108 2208"/><polygon class="cls-37" points="223 2287 36.022 2359 35 2359 128.978 2280 223 2287"/><polygon class="cls-19" points="156 2273 218.51 2286.275 127 2284 156 2273"/><polygon class="cls-45" points="174 2260 156 2273 217.79 2286.257 174 2260"/><polygon class="cls-61" points="108 2208 156 2273 127 2284 108 2208"/><polygon class="cls-37" points="683 2541 769 2559 651 2560 683 2541"/><polygon class="cls-21" points="758.193 2522.384 763.847 2558.943 713 2519 758.193 2522.384"/></g><rect class="cls-1" x="257" y="48" width="1080" height="1122"/></g></g></g></svg>