<svg id="Clipper" xmlns="http://www.w3.org/2000/svg" xmlns:xlink="http://www.w3.org/1999/xlink" viewBox="0 0 1440 2560"><defs><style>.cls-1{fill:none;}.cls-2{clip-path:url(#clip-path);}.cls-3{fill:#414140;}.cls-10,.cls-4,.cls-5,.cls-6,.cls-7,.cls-8,.cls-9{fill:#292929;}.cls-4{opacity:0.7;}.cls-5{opacity:0.65;}.cls-6{opacity:0.66;}.cls-7{opacity:0.68;}.cls-16,.cls-8{opacity:0.77;}.cls-10{opacity:0.8;}.cls-11,.cls-12,.cls-13{fill:#b0b0b0;}.cls-12{opacity:0.43;}.cls-13,.cls-43{opacity:0.18;}.cls-14,.cls-15,.cls-16,.cls-17,.cls-18,.cls-19,.cls-20,.cls-21,.cls-22,.cls-23,.cls-24,.cls-25,.cls-26,.cls-27,.cls-28,.cls-29,.cls-30,.cls-31,.cls-32,.cls-33,.cls-34,.cls-35,.cls-36,.cls-37,.cls-38,.cls-39,.cls-40,.cls-41,.cls-42,.cls-43,.cls-44,.cls-45,.cls-46{fill:#3a3a3a;}.cls-15{opacity:0.44;}.cls-17{opacity:0.58;}.cls-18{opacity:0.46;}.cls-19{opacity:0.21;}.cls-20{opacity:0.07;}.cls-21{opacity:0.36;}.cls-22{opacity:0.11;}.cls-23{opacity:0.5;}.cls-24{opacity:0.23;}.cls-25{opacity:0.09;}.cls-26{opacity:0.28;}.cls-27{opacity:0.37;}.cls-28{opacity:0.14;}.cls-29{opacity:0.24;}.cls-30{opacity:0.22;}.cls-31{opacity:0.3;}.cls-32{opacity:0.2;}.cls-33{opacity:0.47;}.cls-34{opacity:0;}.cls-35{opacity:0.87;}.cls-36{opacity:0.74;}.cls-37{opacity:0.81;}.cls-38{opacity:0.56;}.cls-39{opacity:0.91;}.cls-40{opacity:0.78;}.cls-41{opacity:0.49;}.cls-42{opacity:0.13;}.cls-44{opacity:0.35;}.cls-45{opacity:0.15;}.cls-46{opacity:0.12;}</style><clipPath id="clip-path"><rect class="cls-1" x="-560" y="560" width="2560" height="1440" transform="translate(-560 2000) rotate(-90)"/></clipPath></defs><g class="cls-2"><g id="Bottom"><g id="col1"><path class="cls-3" d="M-7.2375,2413.3266l222.9917-166.6443,58.4861,46.0894,41.0209,24.6445,106.7-37.1653,85.7294,33.252,81.1868,17.69,38.0923-16.1745,13.1877,21.58,101.7744-8.4812c23.6643-1.972,2.5281-1.11,2.5281-1.11l77.8031-43.1892c3.5966,2.3978,22.4383,19.2463,25.3654,18.207l101.84-36.1606,143.8656,37.1652,42.6,61.91,70.0946,101.1375,111.4959,5.9944,121.0868,94.7115L-33.6128,2583.5676Z"/><path class="cls-3" d="M-13.2915,2416.2572,215.6523,2245l57.6867,48.6731,41.9222,21.8806,106.8011-39.0063,2.7041,2.704,84.7272,34.2515,79.3841,15.8275,38.0923-16.1745,13.1877,21.58s60.247-6.2572,102.7865-8.614c.1759-.01.9013-.9013.9013-.9013l78.4178-43.265c3.5966,2.3978,22.4383,19.2463,25.3654,18.2069,24.8841-8.8356,84.6-29.9245,84.6-29.9245l17.1258-5.4081,22.9348,5.0673,23.2465,6.0053,29.4627-5.9061h4.7955l9.591,17.9831,53.95,13.1877,40.7974,62.8116L1206.24,2464.93l111.285,5.2789,121.0868,94.7115L-33.6128,2581.705Z"/><path class="cls-3" d="M-7.2375,2413.3266l222.9917-166.6443,58.4861,46.0894,41.0209,24.6445,106.7-37.1653,85.7294,33.252,81.1868,17.69,38.0923-16.1745,13.1877,21.58,101.7744-8.4812c23.6643-1.972,2.5281-1.11,2.5281-1.11l77.8031-43.1892c3.5966,2.3978,22.4383,19.2463,25.3654,18.207l101.84-36.1606,143.8656,37.1652,42.6,61.91,70.0946,101.1375,111.4959,5.9944,121.0868,94.7115L-33.6128,2583.5676Z"/><path class="cls-3" d="M-13.2915,2416.2572,215.6523,2245l57.6867,48.6731,41.9222,21.8806,106.8011-39.0063,2.7041,2.704,84.7272,34.2515,79.3841,15.8275,38.0923-16.1745,13.1877,21.58s60.247-6.2572,102.7865-8.614c.1759-.01.9013-.9013.9013-.9013l78.4178-43.265c3.5966,2.3978,22.4383,19.2463,25.3654,18.2069,24.8841-8.8356,84.6-29.9245,84.6-29.9245l17.1258-5.4081,22.9348,5.0673,23.2465,6.0053,29.4627-5.9061h4.7955l9.591,17.9831,53.95,13.1877,40.7974,62.8116L1206.24,2464.93l111.285,5.2789,121.0868,94.7115L-33.6128,2581.705Z"/></g><g id="col2"><path class="cls-4" d="M610.1857,2335.9346c-32.7656-9.9353-100.6921-22.4317-100.6921-22.4317s-60.29-25.2763-87.4313-36.9555l-106.8011,39.0063L-42.005,2457.0215l20.9056,124.5409,434.6688.1426Z"/><polygon class="cls-5" points="-15.996 2418.961 215.652 2245 273.339 2293.673 315.261 2315.554 118.645 2570.915 -14.431 2570.915 -15.996 2418.961"/><polygon class="cls-6" points="1194.04 2446.232 1206.24 2464.93 1317.525 2470.209 1438.612 2562.523 1444.606 2581.705 1288.752 2562.523 977.043 2562.523 1194.04 2446.232"/><polygon class="cls-7" points="949.354 2265.731 773.233 2440.237 722.88 2666.826 1265.973 2467.811 1206.24 2464.93 1093.334 2301.167 1039.385 2287.979 1024.998 2292.775 1007.942 2281.955 995.026 2275.991 983.037 2272.394 949.354 2265.731"/><polygon class="cls-8" points="744.964 2325.469 784.023 2322.747 847.501 2299.983 479.508 2574.512 744.964 2325.469"/><polygon class="cls-9" points="630.257 2333.138 125.106 2562.523 578.898 2325.22 588.606 2328.741 626.97 2313.156 630.257 2333.138"/><polygon class="cls-10" points="951.157 2267.534 981.876 2272.687 544.247 2626.064 492.695 2550.534 719.284 2395.879 896.718 2293.974 949.354 2264.83 951.157 2267.534"/><polygon class="cls-9" points="802.006 2560.125 761.245 2429.447 703.698 2460.618 364.415 2576.91 599.396 2641.649 802.006 2560.125"/><polygon class="cls-9" points="209.76 2515.767 153.412 2500.181 -70.778 2562.523 17.939 2666.826 209.76 2515.767"/><path class="cls-4" d="M610.1857,2335.9346c-32.7656-9.9353-100.6921-22.4317-100.6921-22.4317s-60.29-25.2763-87.4313-36.9555l-106.8011,39.0063L-42.005,2457.0215l20.9056,124.5409,434.6688.1426Z"/><polygon class="cls-5" points="-15.996 2418.961 215.652 2245 273.339 2293.673 315.261 2315.554 118.645 2570.915 -14.431 2570.915 -15.996 2418.961"/><polygon class="cls-6" points="1194.04 2446.232 1206.24 2464.93 1317.525 2470.209 1438.612 2562.523 1444.606 2581.705 1288.752 2562.523 977.043 2562.523 1194.04 2446.232"/><polygon class="cls-7" points="949.354 2265.731 773.233 2440.237 722.88 2666.826 1265.973 2467.811 1206.24 2464.93 1093.334 2301.167 1039.385 2287.979 1024.998 2292.775 1007.942 2281.955 995.026 2275.991 983.037 2272.394 949.354 2265.731"/><polygon class="cls-8" points="744.964 2325.469 784.023 2322.747 847.501 2299.983 479.508 2574.512 744.964 2325.469"/><polygon class="cls-9" points="630.257 2333.138 125.106 2562.523 578.898 2325.22 588.606 2328.741 626.97 2313.156 630.257 2333.138"/><polygon class="cls-10" points="951.157 2267.534 981.876 2272.687 544.247 2626.064 492.695 2550.534 719.284 2395.879 896.718 2293.974 949.354 2264.83 951.157 2267.534"/><polygon class="cls-9" points="802.006 2560.125 761.245 2429.447 703.698 2460.618 364.415 2576.91 599.396 2641.649 802.006 2560.125"/><polygon class="cls-9" points="209.76 2515.767 153.412 2500.181 -70.778 2562.523 17.939 2666.826 209.76 2515.767"/></g><g id="col3"><polygon class="cls-11" points="1316.205 2465.832 1436.085 2560.474 1202.635 2561.375 1316.205 2465.832"/><polygon class="cls-11" points="1094.472 2300.884 1137.693 2360.814 1208.944 2464.93 872.74 2569.419 1094.472 2300.884"/><polygon class="cls-11" points="215.652 2245 150.415 2380.828 315.261 2315.554 275.142 2291.87 215.652 2245"/><polygon class="cls-11" points="422.062 2276.547 358.103 2440.827 579.015 2325.145 509.494 2311.7 422.062 2276.547"/><polygon class="cls-11" points="599.194 2347.244 640.158 2334.736 626.97 2313.156 599.194 2347.244"/><polygon class="cls-11" points="847.501 2299.983 822.263 2281.955 785.222 2322.747 847.501 2299.983"/><polygon class="cls-11" points="949.354 2263.928 932.228 2270.238 932.228 2303.588 983.037 2272.394 949.354 2263.928"/><polygon class="cls-11" points="791.217 2463.016 806.802 2562.523 678.522 2641.649 599.396 2608.08 711.397 2560.474 733.931 2545.151 761.245 2429.447 791.217 2463.016"/><polygon class="cls-11" points="209.76 2515.767 250.588 2575.239 68.292 2617.671 153.412 2500.181 209.76 2515.767"/><polygon class="cls-11" points="1030.476 2269.337 1024.998 2269.996 1008.844 2333.333 1040.391 2288.265 1030.476 2269.337"/><polygon class="cls-12" points="1093.571 2300.884 1040.584 2287.979 1021.402 2311.957 989.915 2364.88 1093.571 2300.884"/><polygon class="cls-13" points="1007.942 2281.955 1008.844 2333.333 1020.561 2287.364 1024.998 2269.996 1007.942 2281.955"/><polygon class="cls-11" points="1317.106 2465.832 1273.841 2467.634 1203.536 2560.474 1330.627 2495.576 1317.106 2465.832"/><polygon class="cls-11" points="1316.205 2465.832 1436.085 2560.474 1202.635 2561.375 1316.205 2465.832"/><polygon class="cls-11" points="1094.472 2300.884 1137.693 2360.814 1208.944 2464.93 872.74 2569.419 1094.472 2300.884"/><polygon class="cls-11" points="215.652 2245 150.415 2380.828 315.261 2315.554 275.142 2291.87 215.652 2245"/><polygon class="cls-11" points="422.062 2276.547 358.103 2440.827 579.015 2325.145 509.494 2311.7 422.062 2276.547"/><polygon class="cls-11" points="599.194 2347.244 640.158 2334.736 626.97 2313.156 599.194 2347.244"/><polygon class="cls-11" points="847.501 2299.983 822.263 2281.955 785.222 2322.747 847.501 2299.983"/><polygon class="cls-11" points="949.354 2263.928 932.228 2270.238 932.228 2303.588 983.037 2272.394 949.354 2263.928"/><polygon class="cls-11" points="791.217 2463.016 806.802 2562.523 678.522 2641.649 599.396 2608.08 711.397 2560.474 733.931 2545.151 761.245 2429.447 791.217 2463.016"/><polygon class="cls-11" points="209.76 2515.767 250.588 2575.239 68.292 2617.671 153.412 2500.181 209.76 2515.767"/><polygon class="cls-11" points="1030.476 2269.337 1024.998 2269.996 1008.844 2333.333 1040.391 2288.265 1030.476 2269.337"/><polygon class="cls-12" points="1093.571 2300.884 1040.584 2287.979 1021.402 2311.957 989.915 2364.88 1093.571 2300.884"/><polygon class="cls-13" points="1007.942 2281.955 1008.844 2333.333 1020.561 2287.364 1024.998 2269.996 1007.942 2281.955"/><polygon class="cls-11" points="1317.106 2465.832 1273.841 2467.634 1203.536 2560.474 1330.627 2495.576 1317.106 2465.832"/></g><g id="col4"><polygon class="cls-14" points="761.245 2429.447 703.698 2460.618 713.289 2496.585 733.931 2545.151 761.245 2429.447"/><polygon class="cls-15" points="1288.263 2500.984 1273.841 2467.634 1203.536 2560.474 1263.927 2527.124 1288.263 2500.984"/><polygon class="cls-14" points="1093.334 2301.167 988.112 2365.781 877.686 2562.523 1093.334 2301.167"/><polygon class="cls-14" points="607.788 2320.949 599.396 2346.725 626.97 2313.156 607.788 2320.949"/><polygon class="cls-14" points="149.854 2381.104 159.44 2287.055 215.652 2245 149.854 2381.104"/><polygon class="cls-16" points="703.698 2460.618 623.373 2488.192 733.931 2545.151 703.698 2460.618"/><polygon class="cls-17" points="1273.841 2467.634 1263.927 2527.124 1203.536 2560.474 1273.841 2467.634"/><polygon class="cls-18" points="406.388 2562.523 623.373 2488.192 733.931 2545.151 406.388 2562.523"/><polygon class="cls-19" points="1288.263 2500.984 1436.986 2560.474 1263.927 2527.124 1288.263 2500.984"/><polygon class="cls-20" points="1288.263 2500.984 1298.178 2480.253 1435.609 2559.304 1288.263 2500.984"/><polygon class="cls-21" points="1273.841 2467.634 1298.178 2480.253 1288.263 2500.984 1273.841 2467.634"/><polygon class="cls-22" points="1317.106 2465.832 1298.178 2480.253 1273.841 2467.634 1317.106 2465.832"/><polygon class="cls-23" points="1263.927 2527.124 1441.493 2561.375 1203.536 2560.474 1263.927 2527.124"/><polygon class="cls-24" points="1079.149 2426.172 870.936 2570.389 1094.472 2299.983 1079.149 2426.172"/><polygon class="cls-17" points="1079.149 2426.172 1208.944 2464.93 870.936 2570.389 1079.149 2426.172"/><polygon class="cls-25" points="1126.019 2376.598 1079.149 2426.172 1094.472 2299.983 1126.019 2376.598"/><polygon class="cls-26" points="1126.019 2376.598 1208.944 2464.93 1079.149 2426.172 1126.019 2376.598"/><path class="cls-20" d="M1126.02,2376.5976s82.9542,88.3761,82.9245,88.3327l-66.7-98.3679Z"/><polygon class="cls-27" points="1027.772 2284.66 1008.844 2333.333 1019.66 2290.068 1027.772 2284.66"/><polygon class="cls-28" points="1019.66 2290.068 1027.772 2284.66 1025.068 2270.238 1019.66 2290.068"/><polygon class="cls-29" points="1027.772 2284.66 1040.391 2288.265 1008.844 2333.333 1027.772 2284.66"/><polygon class="cls-30" points="1025.068 2270.238 1027.772 2284.66 1030.476 2269.337 1025.068 2270.238"/><polygon class="cls-31" points="760.971 2525.321 733.931 2545.151 760.971 2429.777 760.971 2525.321"/><polygon class="cls-32" points="791.617 2463.128 760.971 2525.321 806.802 2561.324 791.617 2463.128"/><polygon class="cls-33" points="810.546 2564.079 760.971 2525.321 733.931 2545.151 810.546 2564.079"/><polygon class="cls-34" points="159.768 2540.644 209.343 2515.406 241.858 2562.523 159.768 2540.644"/><polygon class="cls-35" points="134.531 2525.321 100.844 2572.741 161.571 2574.895 159.768 2540.644 134.531 2525.321"/><polygon class="cls-36" points="161.571 2579.402 159.768 2540.644 254.411 2569.487 161.571 2579.402"/><polygon class="cls-22" points="208.456 2515.406 166.078 2518.11 159.768 2540.644 208.456 2515.406"/><polygon class="cls-23" points="134.531 2525.321 166.078 2518.11 159.768 2540.644 134.531 2525.321"/><polygon class="cls-32" points="153.459 2500.083 166.078 2518.11 134.531 2525.321 153.459 2500.083"/><polygon class="cls-21" points="209.343 2515.406 199.428 2535.236 159.768 2540.644 209.343 2515.406"/><polygon class="cls-37" points="241.858 2562.523 199.428 2535.236 159.768 2540.644 244.486 2566.526 241.858 2562.523"/><polygon class="cls-30" points="951.157 2273.843 932.228 2270.238 949.354 2263.928 951.157 2273.843"/><polygon class="cls-38" points="983.606 2272.041 951.157 2273.843 932.228 2303.588 983.606 2272.041"/><polygon class="cls-39" points="951.157 2273.843 932.228 2303.588 931.327 2272.041 932.228 2270.238 951.157 2273.843"/><polygon class="cls-40" points="444.596 2361.275 358.066 2440.594 578.898 2326.122 444.596 2361.275"/><polygon class="cls-41" points="490.565 2334.234 444.596 2361.275 578.898 2326.122 490.565 2334.234"/><polygon class="cls-42" points="510.395 2311.7 490.565 2334.234 581.602 2326.122 510.395 2311.7"/><polygon class="cls-43" points="422.062 2276.547 490.565 2334.234 444.596 2361.275 422.062 2276.547"/><polygon class="cls-44" points="422.062 2276.547 444.596 2361.275 358.066 2440.594 422.062 2276.547"/><polygon class="cls-33" points="215.652 2245 232.778 2313.503 149.854 2381.104 215.652 2245"/><polygon class="cls-14" points="319.308 2316.207 150.774 2381.104 149.854 2381.104 232.778 2313.503 319.308 2316.207"/><polygon class="cls-23" points="258.917 2303.588 318.407 2316.207 232.778 2313.503 258.917 2303.588"/><polygon class="cls-24" points="275.142 2291.87 258.917 2303.588 314.612 2315.538 275.142 2291.87"/><polygon class="cls-45" points="215.652 2245 258.917 2303.588 232.778 2313.503 215.652 2245"/><polygon class="cls-14" points="733.931 2545.151 811.447 2561.375 705.087 2562.276 733.931 2545.151"/><polygon class="cls-46" points="801.706 2528.371 806.802 2561.324 760.971 2525.321 801.706 2528.371"/><polygon class="cls-18" points="989.915 2364.88 1008.844 2333.333 1007.942 2281.955 994.422 2275.646 989.915 2364.88"/><polygon class="cls-14" points="761.245 2429.447 703.698 2460.618 713.289 2496.585 733.931 2545.151 761.245 2429.447"/><polygon class="cls-15" points="1288.263 2500.984 1273.841 2467.634 1203.536 2560.474 1263.927 2527.124 1288.263 2500.984"/><polygon class="cls-14" points="1093.334 2301.167 988.112 2365.781 877.686 2562.523 1093.334 2301.167"/><polygon class="cls-14" points="607.788 2320.949 599.396 2346.725 626.97 2313.156 607.788 2320.949"/><polygon class="cls-14" points="149.854 2381.104 159.44 2287.055 215.652 2245 149.854 2381.104"/><polygon class="cls-16" points="703.698 2460.618 623.373 2488.192 733.931 2545.151 703.698 2460.618"/><polygon class="cls-17" points="1273.841 2467.634 1263.927 2527.124 1203.536 2560.474 1273.841 2467.634"/><polygon class="cls-18" points="406.388 2562.523 623.373 2488.192 733.931 2545.151 406.388 2562.523"/><polygon class="cls-19" points="1288.263 2500.984 1436.986 2560.474 1263.927 2527.124 1288.263 2500.984"/><polygon class="cls-20" points="1288.263 2500.984 1298.178 2480.253 1435.609 2559.304 1288.263 2500.984"/><polygon class="cls-21" points="1273.841 2467.634 1298.178 2480.253 1288.263 2500.984 1273.841 2467.634"/><polygon class="cls-22" points="1317.106 2465.832 1298.178 2480.253 1273.841 2467.634 1317.106 2465.832"/><polygon class="cls-23" points="1263.927 2527.124 1441.493 2561.375 1203.536 2560.474 1263.927 2527.124"/><polygon class="cls-24" points="1079.149 2426.172 870.936 2570.389 1094.472 2299.983 1079.149 2426.172"/><polygon class="cls-17" points="1079.149 2426.172 1208.944 2464.93 870.936 2570.389 1079.149 2426.172"/><polygon class="cls-25" points="1126.019 2376.598 1079.149 2426.172 1094.472 2299.983 1126.019 2376.598"/><polygon class="cls-26" points="1126.019 2376.598 1208.944 2464.93 1079.149 2426.172 1126.019 2376.598"/><path class="cls-20" d="M1126.02,2376.5976s82.9542,88.3761,82.9245,88.3327l-66.7-98.3679Z"/><polygon class="cls-27" points="1027.772 2284.66 1008.844 2333.333 1019.66 2290.068 1027.772 2284.66"/><polygon class="cls-28" points="1019.66 2290.068 1027.772 2284.66 1025.068 2270.238 1019.66 2290.068"/><polygon class="cls-29" points="1027.772 2284.66 1040.391 2288.265 1008.844 2333.333 1027.772 2284.66"/><polygon class="cls-30" points="1025.068 2270.238 1027.772 2284.66 1030.476 2269.337 1025.068 2270.238"/><polygon class="cls-31" points="760.971 2525.321 733.931 2545.151 760.971 2429.777 760.971 2525.321"/><polygon class="cls-32" points="791.617 2463.128 760.971 2525.321 806.802 2561.324 791.617 2463.128"/><polygon class="cls-33" points="810.546 2564.079 760.971 2525.321 733.931 2545.151 810.546 2564.079"/><polygon class="cls-34" points="159.768 2540.644 209.343 2515.406 241.858 2562.523 159.768 2540.644"/><polygon class="cls-35" points="134.531 2525.321 100.844 2572.741 161.571 2574.895 159.768 2540.644 134.531 2525.321"/><polygon class="cls-36" points="161.571 2579.402 159.768 2540.644 254.411 2569.487 161.571 2579.402"/><polygon class="cls-22" points="208.456 2515.406 166.078 2518.11 159.768 2540.644 208.456 2515.406"/><polygon class="cls-23" points="134.531 2525.321 166.078 2518.11 159.768 2540.644 134.531 2525.321"/><polygon class="cls-32" points="153.459 2500.083 166.078 2518.11 134.531 2525.321 153.459 2500.083"/><polygon class="cls-21" points="209.343 2515.406 199.428 2535.236 159.768 2540.644 209.343 2515.406"/><polygon class="cls-37" points="241.858 2562.523 199.428 2535.236 159.768 2540.644 244.486 2566.526 241.858 2562.523"/><polygon class="cls-30" points="951.157 2273.843 932.228 2270.238 949.354 2263.928 951.157 2273.843"/><polygon class="cls-38" points="983.606 2272.041 951.157 2273.843 932.228 2303.588 983.606 2272.041"/><polygon class="cls-39" points="951.157 2273.843 932.228 2303.588 931.327 2272.041 932.228 2270.238 951.157 2273.843"/><polygon class="cls-40" points="444.596 2361.275 358.066 2440.594 578.898 2326.122 444.596 2361.275"/><polygon class="cls-41" points="490.565 2334.234 444.596 2361.275 578.898 2326.122 490.565 2334.234"/><polygon class="cls-42" points="510.395 2311.7 490.565 2334.234 581.602 2326.122 510.395 2311.7"/><polygon class="cls-43" points="422.062 2276.547 490.565 2334.234 444.596 2361.275 422.062 2276.547"/><polygon class="cls-44" points="422.062 2276.547 444.596 2361.275 358.066 2440.594 422.062 2276.547"/><polygon class="cls-33" points="215.652 2245 232.778 2313.503 149.854 2381.104 215.652 2245"/><polygon class="cls-14" points="319.308 2316.207 150.774 2381.104 149.854 2381.104 232.778 2313.503 319.308 2316.207"/><polygon class="cls-23" points="258.917 2303.588 318.407 2316.207 232.778 2313.503 258.917 2303.588"/><polygon class="cls-24" points="275.142 2291.87 258.917 2303.588 314.612 2315.538 275.142 2291.87"/><polygon class="cls-45" points="215.652 2245 258.917 2303.588 232.778 2313.503 215.652 2245"/><polygon class="cls-14" points="733.931 2545.151 811.447 2561.375 705.087 2562.276 733.931 2545.151"/><polygon class="cls-46" points="801.706 2528.371 806.802 2561.324 760.971 2525.321 801.706 2528.371"/><polygon class="cls-18" points="989.915 2364.88 1008.844 2333.333 1007.942 2281.955 994.422 2275.646 989.915 2364.88"/></g></g></g></svg>