<svg id="Clipper" xmlns="http://www.w3.org/2000/svg" xmlns:xlink="http://www.w3.org/1999/xlink" viewBox="0 0 1440 2560"><defs><style>.cls-1{fill:none;}.cls-2{clip-path:url(#clip-path);}.cls-3{fill:#9b9b9b;}.cls-10,.cls-11,.cls-4,.cls-5,.cls-6,.cls-7,.cls-8,.cls-9{fill:#666;}.cls-4{opacity:0.63;}.cls-5{opacity:0.7;}.cls-27,.cls-6{opacity:0.6;}.cls-7{opacity:0.32;}.cls-8{opacity:0.75;}.cls-9{opacity:0.82;}.cls-11,.cls-15,.cls-19{opacity:0.5;}.cls-12,.cls-13,.cls-14,.cls-15{fill:#fff4d7;}.cls-12{opacity:0.62;}.cls-14{opacity:0.61;}.cls-16,.cls-17,.cls-18,.cls-19,.cls-20,.cls-21,.cls-22,.cls-23,.cls-24,.cls-25,.cls-26,.cls-27,.cls-28,.cls-29{fill:#878787;}.cls-16{opacity:0.22;}.cls-17{opacity:0.45;}.cls-18{opacity:0.19;}.cls-20{opacity:0.3;}.cls-21{opacity:0.12;}.cls-22{opacity:0.11;}.cls-23{opacity:0.29;}.cls-24{opacity:0.14;}.cls-25{opacity:0.39;}.cls-26{opacity:0.1;}.cls-28{opacity:0.34;}.cls-29{opacity:0.16;}</style><clipPath id="clip-path"><rect class="cls-1" x="-560" y="560" width="2560" height="1440" transform="translate(-560 2000) rotate(-90)"/></clipPath></defs><g class="cls-2"><g id="Right_copy" data-name="Right copy"><g id="col1_copy_2" data-name="col1 copy 2"><polygon class="cls-3" points="954.994 6.335 984 59.73 970 89.171 1009 178.964 1041 203.988 1141 417.431 1272.885 372.465 1371.312 484.067 1429.836 491.899 1395.119 554.434 1333 675.035 1347.975 714.698 1404.564 834.534 1390 920.862 1360.671 1006.831 1415.205 1304.435 1393.923 1590.291 1322.099 1854.61 1363 2057.263 1410 2092.591 1438 2129.392 1455.108 2111.097 1479.049 1196.749 1463.088 -24.992 962.975 -5.413 954.994 6.335"/></g><g id="col2_copy_2" data-name="col2 copy 2"><polygon class="cls-4" points="1441.807 2128.718 1322 1854.124 1373 1667.177 1438 1780.523 1476.389 2079.77 1441.807 2128.718"/><polygon class="cls-5" points="1447.127 1286.813 1415.6 1311.233 1360.671 1006.831 1390 920.862 1404.564 834.534 1465 881.118 1499 952.009 1447.127 1286.813"/><polygon class="cls-6" points="1440.477 489.941 1371.312 484.067 1272.885 372.465 948 -3.567 1502.991 -40.655 1495.01 384.213 1440.477 489.941"/><polygon class="cls-7" points="1322 1854.124 1487 2150 1438 2129.392 1322 1854.124"/><polygon class="cls-8" points="1329 673.563 1384 694.171 1541 866.398 1522 1079.841 1329 673.563"/><polygon class="cls-9" points="1143 426.263 1273 371.799 1344 367.383 1563 152.467 1387 -86 1157 386.519 1143 426.263"/><polygon class="cls-10" points="1383 1630.377 1394 1590.632 1401 1496.423 1452 1712.81 1383 1630.377"/><line class="cls-10" x1="1357.9033" y1="1722.8467" x2="1322" y2="1854.1239"/><polygon class="cls-10" points="1384 1817.323 1445 1961.581 1322 1854.124 1384 1817.323 1384 1817.323"/><polyline class="cls-10" points="1361 1006.24 1476.906 1278.611 1546 1172.578 1420 948.831 1361 1006.24"/><line class="cls-10" x1="1361" y1="1006.2397" x2="1420" y2="948.8309"/><polyline class="cls-10" points="1405 834.013 1479 906.142 1329 673.563 1405 834.013"/><polyline class="cls-10" points="1288 389.463 1420 427.735 1541 392.407 1378 485.144 1288 389.463"/><polygon class="cls-11" points="1119 311.446 1482 5.265 1049 220.18 1127 395.351 1119 311.446"/><polygon class="cls-10" points="1096 293.781 1217 309.974 1378 -49.199 1368 -52.143 1159 246.677 1067 262.869 1096 293.781"/><polyline class="cls-4" points="1150 233.429 1188 -86 970 90.643 1150 233.429"/></g><g id="col3_copy_2" data-name="col3 copy 2"><polygon class="cls-12" points="1141.207 427.287 1272.885 372.465 1219 307.03 1129 293.781 1069 264.341 1141.207 427.287"/><polygon class="cls-13" points="1141.207 427.287 1188 367.383 1067 262.869 1141.207 427.287"/><polygon class="cls-13" points="1349 719.196 1386 695.643 1407 530.777 1328.749 673.985 1349 719.196"/><polygon class="cls-13" points="1382 1615.656 1378 1559.72 1401 1496.423 1411 1603.88 1383 1630.377 1382 1615.656"/><polygon class="cls-13" points="1361 1006.24 1405 834.013 1420 948.831 1361 1006.24"/><polygon class="cls-13" points="1373 1667.177 1384 1817.323 1322 1854.124 1322 1854.124 1342 1746.666 1373 1667.177"/><polygon class="cls-13" points="1280 380.631 1326 476.312 1378.165 485.468 1355 442.456 1280 380.631"/><polygon class="cls-14" points="1266 374.743 1173 367.383 1141 427.735 1266 374.743"/><polygon class="cls-13" points="1009 178.964 1153 233.429 1069 105.363 970 89.171 1009 178.964"/><polygon class="cls-15" points="1067 262.869 1188 367.383 1217 307.03 1129 293.781 1067 262.869"/></g><g id="col4_copy_2" data-name="col4 copy 2"><polygon class="cls-16" points="1153 233.429 1034 156.884 1069 105.363 1153 233.429"/><polygon class="cls-17" points="970 89.171 1069 105.363 1034 156.884 970 89.171"/><polygon class="cls-18" points="1034 156.884 1009 178.964 970 90.643 1034 156.884"/><polygon class="cls-18" points="1280 380.631 1344 467.48 1355 442.456 1280 380.631"/><polygon class="cls-19" points="1344 467.48 1378 485.144 1355 442.456 1344 467.48"/><polygon class="cls-20" points="1326 476.312 1344 467.48 1378 485.144 1326 476.312"/><polyline class="cls-21" points="1408 532.249 1355 673.563 1386 695.643 1408 532.249"/><polygon class="cls-22" points="1329 673.563 1355 673.563 1349 719.196 1329 673.563"/><polygon class="cls-23" points="1349 719.196 1386 695.643 1355 673.563 1349 719.196"/><polygon class="cls-24" points="1405 834.013 1399 941.471 1384.5 913.294 1405 834.013"/><polygon class="cls-25" points="1420 948.831 1405 834.013 1399 941.471 1420 948.831"/><polygon class="cls-16" points="1399 941.471 1420 948.831 1361 1006.24 1399 941.471"/><polygon class="cls-26" points="1394 1572.968 1401 1497.895 1378 1559.72 1394 1572.968"/><polygon class="cls-27" points="1394 1572.968 1400.879 1497.717 1411 1603.88 1394 1572.968"/><polygon class="cls-28" points="1383 1630.377 1394 1572.968 1411 1603.88 1383 1630.377"/><polygon class="cls-29" points="1322 1854.124 1342 1746.666 1363 1761.387 1322 1854.124"/><polygon class="cls-22" points="1363 1761.387 1373 1667.177 1384 1817.323 1363 1761.387"/><polygon class="cls-25" points="1363 1761.387 1322 1854.124 1384 1817.323 1363 1761.387"/></g></g></g></svg>