<svg id="Inverse_Yellow" data-name="Inverse Yellow" xmlns="http://www.w3.org/2000/svg" xmlns:xlink="http://www.w3.org/1999/xlink" viewBox="0 0 2246.1513 1877.4902"><defs><linearGradient id="linear-gradient" x1="171" y1="535.25" x2="2302" y2="535.25" gradientTransform="matrix(1, 0, 0, -1, -112.8069, 1458)" gradientUnits="userSpaceOnUse"><stop offset="0" stop-color="#fdd315"/><stop offset="0.0967" stop-color="#fdd118" stop-opacity="0.9777"/><stop offset="0.2215" stop-color="#fdcb22" stop-opacity="0.914"/><stop offset="0.3618" stop-color="#fdc232" stop-opacity="0.8088"/><stop offset="0.5135" stop-color="#feb548" stop-opacity="0.6619"/><stop offset="0.6743" stop-color="#fea565" stop-opacity="0.4734"/><stop offset="0.84" stop-color="#ff9187" stop-opacity="0.2471"/><stop offset="1" stop-color="#ff7bac" stop-opacity="0"/></linearGradient></defs><g id="Layer_34_copy_5" data-name="Layer 34 copy 5"><polygon points="29.096 455.071 47.619 399.504 645.258 49.517 813.515 37.053 1013.475 26 1278.121 26 1433.262 37.082 1574.781 49.568 2203.41 386.407 2217.672 439.888 1115.661 1835.496 29.096 455.071" style="fill:#d84023"/><path d="M1277.1931,52l154,11,136,12,614,329q4,15,8,30-536.75,679.75-1073.5,1359.5L58.1931,450q5.5-16.5,11-33l584-342,162-12,199-11h263m1.8546-52H1012.7569l-1.4338.0792-199,11-.4858.0269-.4853.0358-162,12-12.0285.8912-10.408,6.095-292,171-292,171-16.8716,9.88L19.8616,400.556l-5.5,16.4994-5.5,16.5006L0,460.1414l17.3327,22.02,528.75,671.75,528.75,671.75,40.7956,51.8288,40.8757-51.7658,536.75-679.75,536.75-679.75,16.1473-20.4493L2239.437,420.6l-4-14.9981-4-15.0019-5.81-21.7862-19.8737-10.6484-371.87-199.26-242.13-129.74-9.3838-5.0285-10.6054-.9358-136-12-.4322-.038-.4331-.0308-154-11L1279.0487,0Z" transform="translate(0)" style="fill:#292929"/></g><g id="Layer_34_copy_5-2" data-name="Layer 34 copy 5-2"><path d="M2181.1931,404l-614-329-136-12-154-11h-263l-199,11-162,12-584,342-11,33,1057.5,1343.5q536.75-679.75,1073.5-1359.5Q2185.1931,419,2181.1931,404Z" transform="translate(0)" style="fill:url(#linear-gradient)"/></g><g id="slice_copy_8" data-name="slice copy 8"><path d="M923.1931,507l-179-1v18l183,41,181-19,3-21Z" transform="translate(0)" style="fill:#c40e35;opacity:0.6499999761581421;isolation:isolate"/><path d="M1292.1931,512l173,5q1,5,2,10l-181,38-178-19,3-21Z" transform="translate(0)" style="fill:#c40e35;opacity:0.6000000238418579;isolation:isolate"/><path d="M744.1931,506v18l-176,8-141-31V491l136-7Z" transform="translate(0)" style="fill:#c40e35;opacity:0.699999988079071;isolation:isolate"/><path d="M1646.1931,493l161-5-3.4835,10-167.5165,37-169-8q-1-5-2-10Z" transform="translate(0)" style="fill:#c40e35;opacity:0.699999988079071;isolation:isolate"/><path d="M1910.1931,461l117-13q1,3.5,2,7l-103,33-122,10,3-10Z" transform="translate(0)" style="fill:#c40e35;opacity:0.800000011920929;isolation:isolate"/><path d="M2077.1931,429l67-5,6,9-40,20-81,2q-1-3.5-2-7Z" transform="translate(0)" style="fill:#c40e35;opacity:0.8500000238418579;isolation:isolate"/><path d="M318.1931,456l109,35v10l-126-8-104-33,4-8Z" transform="translate(0)" style="fill:#c40e35;opacity:0.800000011920929;isolation:isolate"/><path d="M142.1931,431l59,21-4,8-67-3-44-16,4-12Z" transform="translate(0)" style="fill:#c40e35;opacity:0.8500000238418579;isolation:isolate"/><path d="M2144.1931,424l6,9,39,1q-4-15-8-30Z" transform="translate(0)" style="fill:#c40e35;opacity:0.8999999761581421;isolation:isolate"/><path d="M69.1931,417l-1,1-10,31v1l28-9,4-12Z" transform="translate(0)" style="fill:#c40e35;opacity:0.8999999761581421;isolation:isolate"/></g><g id="Yellow_copy_5" data-name="Yellow copy 5" style="opacity:0.75"><g style="opacity:0.699999988079071"><path d="M1567.1931,75l614,329-37,20-46,3Z" transform="translate(0)" style="fill:#c40e35"/></g><g style="opacity:0.5"><path d="M1910.1931,461l117-13,71-21-604-343Z" transform="translate(0)" style="fill:#c40e35"/></g><g style="opacity:0.4000000059604645"><path d="M1910.1931,461l-103,27-161,5q-76-204.5-152-409Z" transform="translate(0)" style="fill:#c40e35"/></g><g style="opacity:0.25"><path d="M1205.1931,92l87,420,175,5,179-24Z" transform="translate(0)" style="fill:#c40e35"/></g><g style="opacity:0.10000000149011612"><path d="M1205.1931,92q-143.5,208-287,416l193,17,181-13Z" transform="translate(0)" style="fill:#c40e35"/></g><g style="opacity:0.25"><path d="M809.1931,84l-246,400,181,22,174,2Z" transform="translate(0)" style="fill:#c40e35"/></g><g style="opacity:0.4000000059604645"><path d="M809.1931,84l-246,400-135,7-110-35Z" transform="translate(0)" style="fill:#c40e35"/></g><g style="opacity:0.5"><path d="M318.1931,456l-117-4-59-21,511-356Z" transform="translate(0)" style="fill:#c40e35"/></g><g style="opacity:0.6"><path d="M142.1931,431l-52-2-21-12,584-342Z" transform="translate(0)" style="fill:#c40e35"/></g><g style="opacity:0.6"><path d="M58.1931,450l28-9,44,16s657.3333,891.3334,986,1337C892.8273,1515.0243,58.1931,450,58.1931,450Z" transform="translate(0)" style="fill:#c40e35"/></g><g style="opacity:0.5"><path d="M130.1931,457l67,3,104,33,814,1301Z" transform="translate(0)" style="fill:#c40e35"/></g><g style="opacity:0.4000000059604645"><path d="M301.1931,493l126,8,141,31q274,631,548,1262Q708.6931,1143.5,301.1931,493Z" transform="translate(0)" style="fill:#c40e35"/></g><g style="opacity:0.25"><path d="M568.1931,532l176-8,183,41,189,1229Q842.1932,1163,568.1931,532Z" transform="translate(0)" style="fill:#c40e35"/></g><g style="opacity:0.10000000149011612"><path d="M927.1931,565l181-19,178,19s-111.3334,804-170,1229C1051.5265,1369.3334,927.1931,565,927.1931,565Z" transform="translate(0)" style="fill:#c40e35"/></g><g style="opacity:0.25"><path d="M1286.1931,565l181-38,169,8s-344,834-520,1259C1174.86,1369,1286.1931,565,1286.1931,565Z" transform="translate(0)" style="fill:#c40e35"/></g><g style="opacity:0.4000000059604645"><path d="M1636.1931,535l168-37,122-10-810,1306Q1376.1932,1164.5,1636.1931,535Z" transform="translate(0)" style="fill:#c40e35"/></g><g style="opacity:0.5"><path d="M1926.1931,488l103-33,81-2-994,1341Z" transform="translate(0)" style="fill:#c40e35"/></g><g style="opacity:0.699999988079071"><path d="M2189.1931,434l-39-1-40,20-994,1341Q1652.693,1114,2189.1931,434Z" transform="translate(0)" style="fill:#c40e35"/></g><g style="opacity:0.44999998807907104"><path d="M318.1931,456l335-381,156,9Z" transform="translate(0)" style="fill:#c40e35"/></g><g style="opacity:0.20000000298023224"><path d="M809.1931,84l109,424q143.5-208,287-416Z" transform="translate(0)" style="fill:#c40e35"/></g><g style="opacity:0.20000000298023224"><path d="M1646.1931,493l-441-401,289-8Q1570.193,288.5,1646.1931,493Z" transform="translate(0)" style="fill:#c40e35"/></g><path d="M1494.1931,84l604,343-531-352Z" transform="translate(0)" style="fill:#c40e35;opacity:0.6000000238418579;isolation:isolate"/><polygon points="1277.193 52 1421.193 62 1567.193 75 1494.193 84 1205.193 92 809.193 84 653.193 75 809.193 63.444 1014.193 52 1277.193 52" style="fill:#c40e35;opacity:0.5600000023841858;isolation:isolate"/></g></svg>