<svg xmlns="http://www.w3.org/2000/svg" xmlns:xlink="http://www.w3.org/1999/xlink" viewBox="0 0 2246.1511 1877.4912"><defs><style>.cls-1{isolation:isolate;}.cls-2{fill:#00ffb0;}.cls-3{fill:#fff;}.cls-4{fill:url(#linear-gradient);}.cls-10,.cls-5,.cls-6,.cls-7,.cls-8,.cls-9{fill:#008c61;}.cls-5{opacity:0.65;}.cls-19,.cls-6{opacity:0.6;}.cls-11,.cls-7{opacity:0.7;}.cls-8{opacity:0.8;}.cls-9{opacity:0.85;}.cls-10{opacity:0.9;}.cls-12,.cls-19,.cls-20{fill:#00996d;}.cls-13{opacity:0.5;}.cls-14{opacity:0.4;}.cls-15{opacity:0.25;}.cls-16{opacity:0.1;}.cls-17{opacity:0.45;}.cls-18,.cls-21{opacity:0.2;}.cls-20{opacity:0.56;}.cls-21{mix-blend-mode:multiply;}</style><linearGradient id="linear-gradient" x1="171" y1="1344.75" x2="2302" y2="1344.75" gradientUnits="userSpaceOnUse"><stop offset="0" stop-color="#9acd32"/><stop offset="0.1372" stop-color="#9ccb34" stop-opacity="0.9801"/><stop offset="0.277" stop-color="#a2c63c" stop-opacity="0.9204"/><stop offset="0.4181" stop-color="#acbe48" stop-opacity="0.8208"/><stop offset="0.5601" stop-color="#bab359" stop-opacity="0.6811"/><stop offset="0.7027" stop-color="#cca46f" stop-opacity="0.5012"/><stop offset="0.846" stop-color="#e3928a" stop-opacity="0.2809"/><stop offset="0.9873" stop-color="#fc7da9" stop-opacity="0.0249"/><stop offset="1" stop-color="#ff7bac" stop-opacity="0"/></linearGradient></defs><g class="cls-1"><g id="Inverse_Green" data-name="Inverse Green"><g id="Layer_34" data-name="Layer 34"><polygon class="cls-2" points="29.096 455.071 47.619 399.504 645.258 49.517 813.515 37.053 1013.475 26 1278.121 26 1433.262 37.082 1574.781 49.568 2203.41 386.407 2217.672 439.888 1115.661 1835.496 29.096 455.071"/><path class="cls-3" d="M1390,474l154,11,136,12q307,164.5,614,329,4.0005,15,8,30-536.75,679.75-1073.5,1359.5Q699.75,1543.75,171,872q5.5-16.5,11-33L766,497l162-12,199-11h263m1.8546-52H1125.5638l-1.4338.0792-199,11-.4858.0269-.4853.0358-162,12-12.0285.8912-10.4081,6.095-292,171-292,171-16.8715,9.88-6.1823,18.548-5.5,16.4993-5.5,16.5007-8.8616,26.5854,17.3327,22.02,528.75,671.75,528.75,671.75,40.7955,51.8288,40.8757-51.7659,536.75-679.75,536.75-679.75,16.1472-20.4492L2352.2439,842.6l-4-14.9981-4-15.0019-5.81-21.7862L2318.56,780.1654l-371.87-199.26-242.13-129.74-9.3838-5.0285-10.6054-.9358-136-12-.4323-.038-.4331-.0308-154-11-1.85-.1323Z" transform="translate(-112.8069 -422)"/></g><g id="Layer_34_copy_2" data-name="Layer 34 copy 2"><path class="cls-4" d="M2294,826,1680,497l-136-12-154-11H1127L928,485,766,497,182,839l-11,33L1228.5,2215.5Q1765.25,1535.75,2302,856,2298,841,2294,826Z" transform="translate(-112.8069 -422)"/></g><g id="slice_copy_5" data-name="slice copy 5"><path class="cls-5" d="M1036,929l-179-1v18l183,41,181-19,3-21Z" transform="translate(-112.8069 -422)"/><path class="cls-6" d="M1405,934l173,5q1,5,2,10l-181,38-178-19,3-21Z" transform="translate(-112.8069 -422)"/><path class="cls-7" d="M857,928v18l-176,8L540,923V913l136-7Z" transform="translate(-112.8069 -422)"/><path class="cls-7" d="M1759,915l161-5-3.4835,10L1749,957l-169-8q-1-5-2-10Z" transform="translate(-112.8069 -422)"/><path class="cls-8" d="M2023,883l117-13q1,3.5,2,7l-103,33-122,10,3-10Z" transform="translate(-112.8069 -422)"/><path class="cls-9" d="M2190,851l67-5,6,9-40,20-81,2q-1-3.5-2-7Z" transform="translate(-112.8069 -422)"/><path class="cls-8" d="M431,878l109,35v10l-126-8L310,882l4-8Z" transform="translate(-112.8069 -422)"/><path class="cls-9" d="M255,853l59,21-4,8-67-3-44-16,4-12Z" transform="translate(-112.8069 -422)"/><path class="cls-10" d="M2257,846l6,9,39,1q-4-15-8-30Z" transform="translate(-112.8069 -422)"/><path class="cls-10" d="M182,839l-1,1-10,31v1l28-9,4-12Z" transform="translate(-112.8069 -422)"/></g><g id="Yellow_copy_2" data-name="Yellow copy 2"><g class="cls-11"><path class="cls-12" d="M1680,497l614,329-37,20-46,3Z" transform="translate(-112.8069 -422)"/></g><g class="cls-13"><path class="cls-12" d="M2023,883l117-13,71-21L1607,506Z" transform="translate(-112.8069 -422)"/></g><g class="cls-14"><path class="cls-12" d="M2023,883l-103,27-161,5q-76-204.5-152-409Z" transform="translate(-112.8069 -422)"/></g><g class="cls-15"><path class="cls-12" d="M1318,514l87,420,175,5,179-24Z" transform="translate(-112.8069 -422)"/></g><g class="cls-16"><path class="cls-12" d="M1318,514q-143.5,208-287,416l193,17,181-13Z" transform="translate(-112.8069 -422)"/></g><g class="cls-15"><path class="cls-12" d="M922,506,676,906l181,22,174,2Z" transform="translate(-112.8069 -422)"/></g><g class="cls-14"><path class="cls-12" d="M922,506,676,906l-135,7L431,878Z" transform="translate(-112.8069 -422)"/></g><g class="cls-13"><path class="cls-12" d="M431,878l-117-4-59-21L766,497Z" transform="translate(-112.8069 -422)"/></g><g class="cls-11"><path class="cls-12" d="M255,853l-52-2-21-12L766,497Z" transform="translate(-112.8069 -422)"/></g><g class="cls-11"><path class="cls-12" d="M171,872l28-9,44,16s657.3333,891.3334,986,1337C1005.6342,1937.0243,171,872,171,872Z" transform="translate(-112.8069 -422)"/></g><g class="cls-13"><path class="cls-12" d="M243,879l67,3,104,33,814,1301Z" transform="translate(-112.8069 -422)"/></g><g class="cls-14"><path class="cls-12" d="M414,915l126,8,141,31q274,631,548,1262Q821.5,1565.5,414,915Z" transform="translate(-112.8069 -422)"/></g><g class="cls-15"><path class="cls-12" d="M681,954l176-8,183,41,189,1229Q955,1585,681,954Z" transform="translate(-112.8069 -422)"/></g><g class="cls-16"><path class="cls-12" d="M1040,987l181-19,178,19s-111.3334,804-170,1229C1164.3334,1791.3334,1040,987,1040,987Z" transform="translate(-112.8069 -422)"/></g><g class="cls-15"><path class="cls-12" d="M1399,987l181-38,169,8s-344,834-520,1259C1287.6666,1791,1399,987,1399,987Z" transform="translate(-112.8069 -422)"/></g><g class="cls-14"><path class="cls-12" d="M1749,957l168-37,122-10L1229,2216Q1489,1586.5,1749,957Z" transform="translate(-112.8069 -422)"/></g><g class="cls-13"><path class="cls-12" d="M2039,910l103-33,81-2L1229,2216Z" transform="translate(-112.8069 -422)"/></g><g class="cls-11"><path class="cls-12" d="M2302,856l-39-1-40,20L1229,2216Q1765.5,1536,2302,856Z" transform="translate(-112.8069 -422)"/></g><g class="cls-17"><path class="cls-12" d="M431,878,766,497l156,9Z" transform="translate(-112.8069 -422)"/></g><g class="cls-18"><path class="cls-12" d="M922,506l109,424q143.5-208,287-416Z" transform="translate(-112.8069 -422)"/></g><g class="cls-18"><path class="cls-12" d="M1759,915,1318,514l289-8Q1683,710.5,1759,915Z" transform="translate(-112.8069 -422)"/></g><path class="cls-19" d="M1607,506l604,343L1680,497Z" transform="translate(-112.8069 -422)"/><polygon class="cls-20" points="1277.193 52 1421.193 62 1567.193 75 1494.193 84 1205.193 92 809.193 84 653.193 75 809.193 63.444 1014.193 52 1277.193 52"/></g><g id="Yellow_copy_7" data-name="Yellow copy 7" class="cls-21"><g class="cls-11"><path class="cls-12" d="M1680,497l614,329-37,20-46,3Z" transform="translate(-112.8069 -422)"/></g><g class="cls-13"><path class="cls-12" d="M2023,883l117-13,71-21L1607,506Z" transform="translate(-112.8069 -422)"/></g><g class="cls-14"><path class="cls-12" d="M2023,883l-103,27-161,5q-76-204.5-152-409Z" transform="translate(-112.8069 -422)"/></g><g class="cls-15"><path class="cls-12" d="M1318,514l87,420,175,5,179-24Z" transform="translate(-112.8069 -422)"/></g><g class="cls-16"><path class="cls-12" d="M1318,514q-143.5,208-287,416l193,17,181-13Z" transform="translate(-112.8069 -422)"/></g><g class="cls-15"><path class="cls-12" d="M922,506,676,906l181,22,174,2Z" transform="translate(-112.8069 -422)"/></g><g class="cls-14"><path class="cls-12" d="M922,506,676,906l-135,7L431,878Z" transform="translate(-112.8069 -422)"/></g><g class="cls-13"><path class="cls-12" d="M431,878l-117-4-59-21L766,497Z" transform="translate(-112.8069 -422)"/></g><g class="cls-11"><path class="cls-12" d="M255,853l-52-2-21-12L766,497Z" transform="translate(-112.8069 -422)"/></g><g class="cls-11"><path class="cls-12" d="M171,872l28-9,44,16s657.3333,891.3334,986,1337C1005.6342,1937.0243,171,872,171,872Z" transform="translate(-112.8069 -422)"/></g><g class="cls-13"><path class="cls-12" d="M243,879l67,3,104,33,814,1301Z" transform="translate(-112.8069 -422)"/></g><g class="cls-14"><path class="cls-12" d="M414,915l126,8,141,31q274,631,548,1262Q821.5,1565.5,414,915Z" transform="translate(-112.8069 -422)"/></g><g class="cls-15"><path class="cls-12" d="M681,954l176-8,183,41,189,1229Q955,1585,681,954Z" transform="translate(-112.8069 -422)"/></g><g class="cls-16"><path class="cls-12" d="M1040,987l181-19,178,19s-111.3334,804-170,1229C1164.3334,1791.3334,1040,987,1040,987Z" transform="translate(-112.8069 -422)"/></g><g class="cls-15"><path class="cls-12" d="M1399,987l181-38,169,8s-344,834-520,1259C1287.6666,1791,1399,987,1399,987Z" transform="translate(-112.8069 -422)"/></g><g class="cls-14"><path class="cls-12" d="M1749,957l168-37,122-10L1229,2216Q1489,1586.5,1749,957Z" transform="translate(-112.8069 -422)"/></g><g class="cls-13"><path class="cls-12" d="M2039,910l103-33,81-2L1229,2216Z" transform="translate(-112.8069 -422)"/></g><g class="cls-11"><path class="cls-12" d="M2302,856l-39-1-40,20L1229,2216Q1765.5,1536,2302,856Z" transform="translate(-112.8069 -422)"/></g><g class="cls-17"><path class="cls-12" d="M431,878,766,497l156,9Z" transform="translate(-112.8069 -422)"/></g><g class="cls-18"><path class="cls-12" d="M922,506l109,424q143.5-208,287-416Z" transform="translate(-112.8069 -422)"/></g><g class="cls-18"><path class="cls-12" d="M1759,915,1318,514l289-8Q1683,710.5,1759,915Z" transform="translate(-112.8069 -422)"/></g><path class="cls-19" d="M1607,506l604,343L1680,497Z" transform="translate(-112.8069 -422)"/><polygon class="cls-20" points="1277.193 52 1421.193 62 1567.193 75 1494.193 84 1205.193 92 809.193 84 653.193 75 809.193 63.444 1014.193 52 1277.193 52"/></g></g></g></svg>