<svg xmlns="http://www.w3.org/2000/svg" viewBox="0 0 1600 1600"><defs><style>.cls-1,.cls-18,.cls-19,.cls-20,.cls-21,.cls-22,.cls-23,.cls-24,.cls-25,.cls-26,.cls-27,.cls-28,.cls-29{fill:#b0b0b0;}.cls-10,.cls-11,.cls-2,.cls-3,.cls-4,.cls-5,.cls-6,.cls-7,.cls-8,.cls-9{fill:#292929;}.cls-2{opacity:0.22;}.cls-3{opacity:0.93;}.cls-4{opacity:0.79;}.cls-6{opacity:0.86;}.cls-12,.cls-26,.cls-7{opacity:0.88;}.cls-16,.cls-8{opacity:0.74;}.cls-9{opacity:0.53;}.cls-10,.cls-39{opacity:0.89;}.cls-11,.cls-13{opacity:0.96;}.cls-12,.cls-13,.cls-14,.cls-15,.cls-16{fill:#414140;}.cls-14{opacity:0.98;}.cls-15{opacity:0.92;}.cls-17{opacity:0.94;}.cls-18{opacity:0.57;}.cls-19,.cls-38{opacity:0.87;}.cls-20{opacity:0.83;}.cls-21{opacity:0.37;}.cls-22{opacity:0.46;}.cls-23{opacity:0.55;}.cls-24{opacity:0.28;}.cls-25{opacity:0.73;}.cls-27{opacity:0.75;}.cls-28{opacity:0.52;}.cls-29{opacity:0.61;}.cls-30,.cls-31{fill:#fcfcfc;}.cls-31{opacity:0.48;}.cls-32{opacity:0.78;}.cls-33{fill:#fffffd;opacity:0.59;}.cls-34{fill:#fff;}.cls-35{fill:#eaeaea;}.cls-36{opacity:0.44;}.cls-37{fill:#565656;}.cls-39{fill:#212121;}</style></defs><g id="Layer_2" data-name="Layer 2"><g id="Layer_3" data-name="Layer 3"><rect class="cls-1" width="1600" height="1600"/></g><g id="Layer_5" data-name="Layer 5"><polygon class="cls-2" points="1654 1696 -520 613 154 -615 1007.752 400.298 1654 1696"/><polygon class="cls-3" points="-76 1206 701 636 764 717 1595 1624 -139 1669 -76 1206"/><polygon class="cls-4" points="0 1600 682 192 385 0 -77 125 -507 1550 -36 1812 0 1600"/><polygon class="cls-5" points="1088 -121 866.269 1617.624 1765 379 1088 -121"/><polygon class="cls-6" points="1790 179 -507 1143 682 192 1072.569 0 1407 -121 1448 132 1790 179"/><polygon class="cls-7" points="-283 24 1749 1287 781 -346 -283 24"/><polygon class="cls-8" points="895 1793 1790 511 1501 1493 895 1793"/><polygon class="cls-9" points="706 633 1581 806 1525 1411 706 633"/><polygon class="cls-10" points="1252.165 2.055 1600 0 1570.715 148.864 1511.681 191.945 1438.356 138.292 1252.165 2.055"/><polygon class="cls-11" points="1634 -41 1406 175 1571 149 1634 -41"/></g><g id="Layer_6" data-name="Layer 6"><polygon class="cls-12" points="0 1180 341 465 264 27 -17 103 0 1180"/><polygon class="cls-13" points="344 902 909.927 1322.344 977 806 872.269 566.669 594 369 344 902"/><polygon class="cls-14" points="1459.528 800 1119.13 1269.133 1515.737 1442.923 1515.737 1142.014 1460.253 983.154 1459.528 800"/><polygon class="cls-15" points="1037.747 0 1007 508 1600 175 1600.306 60.616 1252 0 1037.747 0"/><polygon class="cls-16" points="-614 1645 211 1164 901 1375 849 1711 -614 1645"/></g><g id="Layer_7" data-name="Layer 7" class="cls-17"><polygon class="cls-1" points="1624 1618 1387.766 1549.056 1516 1143 1601.484 1056.736 1624 1618"/><polygon class="cls-18" points="1143.5 431.348 1008 480 800 520 410.086 748.312 392 942 554.886 1063.093 952 953 959.954 891.032 1143.5 431.348"/><polygon class="cls-19" points="0.473 549.967 374 438 627 254 296.293 210.694 106 268 -64 558 0.473 549.967"/><polygon class="cls-20" points="1614.728 586.104 1334 747 1237.368 1106.179 1600.306 942.011 1614.728 586.104"/><polygon class="cls-21" points="0.473 1474.495 211 1164 0 1600 -100 1634 0.473 1474.495"/><polygon class="cls-22" points="-581 982 267 620 223.593 990.275 9.879 1143 -581 982"/><polygon class="cls-23" points="866.179 1600 932.007 1106.179 690.742 1164 356 1050 663 1302 800 1776 866.179 1600"/><polygon class="cls-24" points="356.397 1049.586 364.015 1210.792 100 1603 501 1741 654.5 1600 662.62 1302.104 356.397 1049.586"/><polygon class="cls-25" points="971 0 834.407 119.154 502.839 550.563 733 472.001 1129 84 1252 0 971 0"/><polygon class="cls-26" points="-47 78 576 177 660 160 728 -34 -47 -58.068 -47 78"/><polygon class="cls-27" points="1506 -128 1342.5 1.521 1217.244 389.937 1252 586 1599 455 1506 -128"/><polygon class="cls-28" points="957 1607 1080.521 1322.344 1492.166 1074.527 1252 1616.267 957 1607"/><polygon class="cls-29" points="227 1050 4 1214 -200 1600 48 1634 220.429 1164 227 1050"/><line class="cls-1" y1="511" x2="129" y2="301"/><polygon class="cls-1" points="1007 1600 1252 1327.356 1408.122 1264.105 1252 1616 1007 1600"/><polygon class="cls-1" points="-17 1264.105 129 1199 227 1050 129 1406 -64 1531 -17 1264.105"/></g><g id="Layer_11" data-name="Layer 11"><polygon class="cls-30" points="1063.857 459.769 800 520 410 748 392 942 502.839 1024.435 965 755 1063.857 459.769"/><polygon class="cls-30" points="18 22 568 160 655 154 727 -36 -4 -36 18 22"/><polygon class="cls-30" points="0 470.5 106 268 302 301 627 254 361 416 -17 530 -100 460 0 470.5"/><polygon class="cls-30" points="503 551 706 416 916.692 292.429 932 192 1190 -109 826 160 503 551"/><polygon class="cls-30" points="1343 0 1217 392 1252 586 1303.653 341.414 1343 0 1343 0"/><polygon class="cls-30" points="1294.099 570.143 1439 254 1505.883 0.556 1537.106 67 1573.158 293 1294 570 1294.099 570.143"/><polygon class="cls-30" points="596 1180 682 1211.788 901 1143 829 1669 717 1304 596 1180"/><polygon class="cls-30" points="-17 781 227 656 129 983 -17 1024 -17 781"/><polygon class="cls-30" points="179.286 1600 451.462 1239.505 406.464 1074.527 596 1247.003 503 1634 179.286 1600"/><polygon class="cls-30" points="1181 1690 1076.849 1697.798 1251.583 1476.082 1331 1437 1307 1663 1181 1690"/><polygon class="cls-30" points="1634 626 1408 748 1434 800 1342.5 961.287 1537 906 1605 835 1624 689 1634 626"/><polygon class="cls-30" points="1667 1075 1534 1211 1516 1443 1654 1741 1790 1413 1667 1075"/><polygon class="cls-31" points="1164 511 1237 781 932 1443 1007 882 1164 511"/><polygon class="cls-30" points="1190 110 932 384 1077 406 1190 110"/><polygon class="cls-30" points="1107 780 974 1116 932 1443 1107 1045 1107 780"/></g><g id="Layer_10" data-name="Layer 10" class="cls-32"><rect class="cls-1" x="-569" y="-257" width="2535" height="2184"/></g><g id="Layer_12" data-name="Layer 12"><polygon class="cls-33" points="1064 460 932 742 503 1024 971 748 1064 460"/><polygon class="cls-34" points="917 293 698.5 447.494 503 551 706 392 917 293"/><polygon class="cls-34" points="1488 81 1322.581 508 1466 275 1488 81"/><polygon class="cls-35" points="1324.561 160 1303.653 348.604 1271 496 1280 341 1324.561 160"/><polygon class="cls-35" points="971 389.917 1064 392 1147.625 221 1077 406 971 389.917"/><polygon class="cls-35" points="1164 511 1076.849 716.942 1164 551 1197.796 636 1164 511"/><polygon class="cls-35" points="1105 857 1107 1050 932 1443 1094 1024 1105 857"/><polygon class="cls-35" points="1387.766 881.496 1280 1056.736 1537 906 1358 957 1387.766 881.496"/><polygon class="cls-35" points="1600 1180 1581 1287 1590 1337 1595 1609.536 1798 1195 1600 1180"/><polygon class="cls-35" points="1600 942 1595 986 1581 1003.587 1599 1033.952 1634 1012 1600 942"/><polyline class="cls-35" points="1600 541 1634 348.512 1600.306 301 1578.741 328 1600.306 540.5"/><polygon class="cls-35" points="1096.095 0.556 1014.309 95.973 1096 19 1252 0 1096.095 0.556"/><polygon class="cls-35" points="419.265 1121.462 451 1240 338 1395.293 432.473 1231.593 419.265 1121.462"/><polygon class="cls-35" points="227 1074.527 214.559 1180 129 1406 179 1195 227 1074.527"/><polygon class="cls-35" points="0.473 1017.967 14 780 129 706.205 -38 762 0.473 1017.967"/><polygon class="cls-35" points="105 268 227 288.372 105 285 6.802 470.5 -147 422 0 369.25 105 268"/><path class="cls-35" d="M361,422,530.0931,313.5,378.4746,434.4311a29.7476,29.7476,0,0,1-9.9541,5.2225L114.4066,516.3407Z"/><polygon class="cls-35" points="13.5 0 72 35 410 120 -17 27 -17 -36 13.5 0"/><polygon class="cls-35" points="971 0 866.269 91.359 952 7 728 0.556 936 -22 971 0"/><polygon class="cls-35" points="322.25 0.556 567 27 627 0 322.25 0.556"/><polygon class="cls-35" points="1331 1437 1403.286 1265.615 1375.989 1386.67 1331 1437"/><path class="cls-35" d="M1516,1600l-196.978-40.0549L1181.3516,1600S1402,1668,1403,1669,1516,1600,1516,1600Z"/><polygon class="cls-35" points="511.171 1600 550.341 1437 531 1581 655 1600 511.171 1600"/><polygon class="cls-35" points="667.462 1250.187 717 1304 805.132 1588.429 667.462 1250.187"/><polygon class="cls-35" points="183.844 800 166.761 857 242.384 828.5 179 846 183.844 800"/><polygon class="cls-35" points="644 612 434 717 455 648 410 748 644 612"/><polygon class="cls-35" points="1133 81 1054.363 154.758 1144 96 1217.244 23.736 1133 81"/><polygon class="cls-35" points="401 846 392 942 453.844 987.976 410 931 401 846"/><polygon class="cls-35" points="0 1600 46 1588 105 1478.631 63 1616 0 1600"/><polygon class="cls-35" points="1280 1316.012 1190 1354 1061 1539.907 1237 1353 1280 1316.012"/><polygon class="cls-35" points="748.5 1190.901 901 1143 873.295 1345.397 887 1164 748.5 1190.901"/></g><g id="Layer_13" data-name="Layer 13" class="cls-36"><polygon class="cls-37" points="503 1024 699 895 804 547 846 509 800 520 738 557 698 580 731.3 570.143 503 1018 476 1004 503 1024"/></g><rect class="cls-39" x="-569" y="-257" width="2535" height="2184"/></g></svg>