<svg id="Green" xmlns="http://www.w3.org/2000/svg" viewBox="0 0 455 631.5098"><defs><style>.cls-1{fill:#b0b0b0;}.cls-2{fill:#9acd32;}.cls-3{opacity:0.36;}.cls-4{fill:#0eceeb;}</style></defs><g id="Layer_3" data-name="Layer 3"><polygon class="cls-1" points="0.5 186.5 127.5 4.5 194 46 0.5 186.5"/><polygon class="cls-1" points="139 0 245 69 455 69 339 0 139 0"/><polygon class="cls-1" points="369 81 272 277 292 118.5 257 81 369 81"/><polygon class="cls-1" points="386 81 176 482 397 259 455 81 386 81"/><polygon class="cls-1" points="234.578 439.16 160.864 558.325 189.999 572.042 234.578 439.16"/><polygon class="cls-1" points="226.053 484.605 199.817 570.143 224.395 560.297 226.053 484.605"/><polygon class="cls-1" points="195.413 584.236 194.931 629.144 223.154 601.278 228.447 570.717 195.413 584.236"/><polygon class="cls-1" points="190.223 631.51 187.146 588.89 151.361 572.385 118.485 591.984 142.169 630.182 190.223 631.51"/><polygon class="cls-1" points="148.448 567.855 118.327 585.903 141.39 536.628 148.448 567.855"/><polygon class="cls-1" points="232 69 199 49 124 103 232 69"/></g><g id="Layer_3_copy_2" data-name="Layer 3 copy 2"><polygon class="cls-2" points="0.5 186.5 127.5 4.5 194 46 0.5 186.5"/><polygon class="cls-2" points="139 0 245 69 455 69 339 0 139 0"/><polygon class="cls-2" points="369 81 272 277 292 118.5 257 81 369 81"/><polygon class="cls-2" points="386 81 176 482 397 259 455 81 386 81"/><polygon class="cls-2" points="234.578 439.16 160.864 558.325 189.999 572.042 234.578 439.16"/><polygon class="cls-2" points="226.053 484.605 199.817 570.143 224.395 560.297 226.053 484.605"/><polygon class="cls-2" points="195.413 584.236 194.931 629.144 223.154 601.278 228.447 570.717 195.413 584.236"/><polygon class="cls-2" points="190.223 631.51 187.146 588.89 151.361 572.385 118.485 591.984 142.169 630.182 190.223 631.51"/><polygon class="cls-2" points="148.448 567.855 118.327 585.903 141.39 536.628 148.448 567.855"/><polygon class="cls-2" points="232 69 199 49 124 103 232 69"/></g><g id="Layer_4" data-name="Layer 4" class="cls-3"><polygon class="cls-4" points="455 81 176 482 397 259 455 81"/><polygon class="cls-4" points="339 0 245 69 455 69 339 0"/><polygon class="cls-4" points="128 4 119 84 0 186 57 106 128 4"/><polygon class="cls-4" points="151.361 572.385 142.169 630.182 118.485 591.984 151.361 572.385"/><polygon class="cls-4" points="195.413 584.236 212.988 596.115 194.931 629.144 223.154 601.278 228.447 570.717 195.413 584.236"/><path class="cls-4" d="M835,224" transform="translate(-751 -204)"/></g></svg>