<svg id="Green" xmlns="http://www.w3.org/2000/svg" viewBox="0 0 455 631.5098"><defs><style>.cls-1{fill:#b0b0b0;}.cls-2{fill:#9acd32;}.cls-3{opacity:0.36;}.cls-4{fill:#0eceeb;}.cls-5{opacity:0.51;}.cls-6{fill:#00b587;}</style></defs><g id="Layer_3" data-name="Layer 3"><polygon class="cls-1" points="0.5 186.5 127.5 4.5 194 46 0.5 186.5"/><polygon class="cls-1" points="139 0 245 69 455 69 339 0 139 0"/><polygon class="cls-1" points="369 81 272 277 292 118.5 257 81 369 81"/><polygon class="cls-1" points="386 81 176 482 397 259 455 81 386 81"/><polygon class="cls-1" points="234.578 439.16 160.864 558.325 189.999 572.042 234.578 439.16"/><polygon class="cls-1" points="226.053 484.605 199.817 570.143 224.395 560.297 226.053 484.605"/><polygon class="cls-1" points="195.413 584.236 194.931 629.144 223.154 601.278 228.447 570.717 195.413 584.236"/><polygon class="cls-1" points="190.223 631.51 187.146 588.89 151.361 572.385 118.485 591.984 142.169 630.182 190.223 631.51"/><polygon class="cls-1" points="148.448 567.855 118.327 585.903 141.39 536.628 148.448 567.855"/><polygon class="cls-1" points="232 69 199 49 124 103 232 69"/></g><g id="Layer_3_copy_2" data-name="Layer 3 copy 2"><polygon class="cls-2" points="0.5 186.5 127.5 4.5 194 46 0.5 186.5"/><polygon class="cls-2" points="139 0 245 69 455 69 339 0 139 0"/><polygon class="cls-2" points="369 81 272 277 292 118.5 257 81 369 81"/><polygon class="cls-2" points="386 81 176 482 397 259 455 81 386 81"/><polygon class="cls-2" points="234.578 439.16 160.864 558.325 189.999 572.042 234.578 439.16"/><polygon class="cls-2" points="226.053 484.605 199.817 570.143 224.395 560.297 226.053 484.605"/><polygon class="cls-2" points="195.413 584.236 194.931 629.144 223.154 601.278 228.447 570.717 195.413 584.236"/><polygon class="cls-2" points="190.223 631.51 187.146 588.89 151.361 572.385 118.485 591.984 142.169 630.182 190.223 631.51"/><polygon class="cls-2" points="148.448 567.855 118.327 585.903 141.39 536.628 148.448 567.855"/><polygon class="cls-2" points="232 69 199 49 124 103 232 69"/></g><g id="Layer_4" data-name="Layer 4" class="cls-3"><polygon class="cls-4" points="455 81 176 482 397 259 455 81"/><polygon class="cls-4" points="339 0 245 69 455 69 339 0"/><polygon class="cls-4" points="128 4 119 84 0 186 57 106 128 4"/><polygon class="cls-4" points="151.361 572.385 142.169 630.182 118.485 591.984 151.361 572.385"/><polygon class="cls-4" points="195.413 584.236 212.988 596.115 194.931 629.144 223.154 601.278 228.447 570.717 195.413 584.236"/><path class="cls-4" d="M835,224" transform="translate(-751 -204)"/></g><g id="Layer_5" data-name="Layer 5" class="cls-5"><polygon class="cls-6" points="118.485 591.984 190.212 631.075 187.146 588.89 118.485 591.984"/><polygon class="cls-6" points="228.447 570.717 194.931 629.144 195.413 584.236 228.447 570.717"/><polygon class="cls-6" points="221.07 558.903 212.935 527.374 199.817 570.143 221.07 558.903"/><polygon class="cls-6" points="141.39 536.628 138.093 561.71 118.327 585.903 141.39 536.628"/><polygon class="cls-6" points="235.56 438.97 184.618 554.749 189.999 572.042 235.56 438.97"/><polygon class="cls-6" points="386 81 397 259 374.702 281.5 176 482 386 81"/><polygon class="cls-6" points="257 81 330.348 159.101 369 81 257 81"/><polygon class="cls-6" points="139 0 455 69 245 69 139 0"/><polygon class="cls-6" points="194 46 151.898 20.294 118.396 100.868 194 46"/><polygon class="cls-6" points="126.961 100.868 210.759 56.126 199 49 126.961 100.868"/><polygon class="cls-6" points="0 186 62 142 58 104 0 186"/><polygon class="cls-6" points="273.75 341.506 363.755 292.546 247.818 409.532 240.63 389.108 273.75 341.506"/></g></svg>