<svg id="Green" xmlns="http://www.w3.org/2000/svg" viewBox="0 0 455 631.5098"><defs><style>.cls-1{fill:#b0b0b0;}.cls-2,.cls-9{fill:#9acd32;}.cls-3{opacity:0.36;}.cls-4{fill:#0eceeb;}.cls-5{opacity:0.51;}.cls-6{fill:#00b587;}.cls-7{opacity:0.86;}.cls-8{fill:#e1ff25;}.cls-9{opacity:0.63;}</style></defs><g id="Layer_3" data-name="Layer 3"><polygon class="cls-1" points="0.5 186.5 127.5 4.5 194 46 0.5 186.5"/><polygon class="cls-1" points="139 0 245 69 455 69 339 0 139 0"/><polygon class="cls-1" points="369 81 272 277 292 118.5 257 81 369 81"/><polygon class="cls-1" points="386 81 176 482 397 259 455 81 386 81"/><polygon class="cls-1" points="234.578 439.16 160.864 558.325 189.999 572.042 234.578 439.16"/><polygon class="cls-1" points="226.053 484.605 199.817 570.143 224.395 560.297 226.053 484.605"/><polygon class="cls-1" points="195.413 584.236 194.931 629.144 223.154 601.278 228.447 570.717 195.413 584.236"/><polygon class="cls-1" points="190.223 631.51 187.146 588.89 151.361 572.385 118.485 591.984 142.169 630.182 190.223 631.51"/><polygon class="cls-1" points="148.448 567.855 118.327 585.903 141.39 536.628 148.448 567.855"/><polygon class="cls-1" points="232 69 199 49 124 103 232 69"/></g><g id="Layer_3_copy_2" data-name="Layer 3 copy 2"><polygon class="cls-2" points="0.5 186.5 127.5 4.5 194 46 0.5 186.5"/><polygon class="cls-2" points="139 0 245 69 455 69 339 0 139 0"/><polygon class="cls-2" points="369 81 272 277 292 118.5 257 81 369 81"/><polygon class="cls-2" points="386 81 176 482 397 259 455 81 386 81"/><polygon class="cls-2" points="234.578 439.16 160.864 558.325 189.999 572.042 234.578 439.16"/><polygon class="cls-2" points="226.053 484.605 199.817 570.143 224.395 560.297 226.053 484.605"/><polygon class="cls-2" points="195.413 584.236 194.931 629.144 223.154 601.278 228.447 570.717 195.413 584.236"/><polygon class="cls-2" points="190.223 631.51 187.146 588.89 151.361 572.385 118.485 591.984 142.169 630.182 190.223 631.51"/><polygon class="cls-2" points="148.448 567.855 118.327 585.903 141.39 536.628 148.448 567.855"/><polygon class="cls-2" points="232 69 199 49 124 103 232 69"/></g><g id="Layer_4" data-name="Layer 4" class="cls-3"><polygon class="cls-4" points="455 81 176 482 397 259 455 81"/><polygon class="cls-4" points="339 0 245 69 455 69 339 0"/><polygon class="cls-4" points="128 4 119 84 0 186 57 106 128 4"/><polygon class="cls-4" points="151.361 572.385 142.169 630.182 118.485 591.984 151.361 572.385"/><polygon class="cls-4" points="195.413 584.236 212.988 596.115 194.931 629.144 223.154 601.278 228.447 570.717 195.413 584.236"/><path class="cls-4" d="M835,224" transform="translate(-751 -204)"/></g><g id="Layer_5" data-name="Layer 5" class="cls-5"><polygon class="cls-6" points="118.485 591.984 190.212 631.075 187.146 588.89 118.485 591.984"/><polygon class="cls-6" points="228.447 570.717 194.931 629.144 195.413 584.236 228.447 570.717"/><polygon class="cls-6" points="221.07 558.903 212.935 527.374 199.817 570.143 221.07 558.903"/><polygon class="cls-6" points="141.39 536.628 138.093 561.71 118.327 585.903 141.39 536.628"/><polygon class="cls-6" points="235.56 438.97 184.618 554.749 189.999 572.042 235.56 438.97"/><polygon class="cls-6" points="386 81 397 259 374.702 281.5 176 482 386 81"/><polygon class="cls-6" points="257 81 330.348 159.101 369 81 257 81"/><polygon class="cls-6" points="139 0 455 69 245 69 139 0"/><polygon class="cls-6" points="194 46 151.898 20.294 118.396 100.868 194 46"/><polygon class="cls-6" points="126.961 100.868 210.759 56.126 199 49 126.961 100.868"/><polygon class="cls-6" points="0 186 62 142 58 104 0 186"/><polygon class="cls-6" points="273.75 341.506 363.755 292.546 247.818 409.532 240.63 389.108 273.75 341.506"/></g><g id="Layer_6" data-name="Layer 6" class="cls-7"><polygon class="cls-8" points="360.185 130.295 350 231.914 265.526 311.048 360.185 130.295"/><polygon class="cls-8" points="160.675 557.343 163.667 557.019 184.618 554.749 211.136 494.48 160.675 557.343"/><polygon class="cls-8" points="197.451 585.614 212.988 596.115 203.112 614.883 197.451 585.614"/><polygon class="cls-8" points="151.361 572.385 143.15 629.992 163.858 616.712 173.551 589.503 151.361 572.385"/><polygon class="cls-8" points="148.448 567.855 139.036 554.533 131.504 569.774 148.448 567.855"/><polygon class="cls-8" points="214.736 534.356 219.818 554.053 224.552 553.137 225.412 513.852 214.736 534.356"/><polygon class="cls-8" points="292 118.5 369 81 282.51 193.712 292 118.5"/><polygon class="cls-8" points="386 81 445.259 95 455 81 386 81"/><polygon class="cls-8" points="220.274 61.894 180.564 72.248 211 56 220.274 61.894"/><polygon class="cls-8" points="45 148 47 120 0 187 45 148"/><polygon class="cls-8" points="118 101 146 35 128 5 118 101"/><polygon class="cls-8" points="232 20 263 56 315.5 38.54 314 18 232 20"/><polygon class="cls-8" points="364 293 274 342 247.818 378.778 240.63 416.785 364 293"/><path class="cls-8" d="M794,317" transform="translate(-751 -204)"/><polygon class="cls-8" points="61.117 133.614 59.684 120 86 112 61.117 133.614"/><polygon class="cls-8" points="176 482 204.887 426.839 204.887 452.851 176 482"/><g id="Layer_7" data-name="Layer 7"><polygon class="cls-9" points="86 112 119 84 124.287 37 60 120 86 112"/></g></g></svg>