<svg id="Orange" xmlns="http://www.w3.org/2000/svg" viewBox="0 0 455 633.5034"><defs><style>.cls-1{fill:#dda424;}.cls-2{opacity:0.36;}.cls-3{fill:#a11dd8;}.cls-4{opacity:0.51;}.cls-5{fill:#d84023;}.cls-6{opacity:0.86;}.cls-7{fill:#edd83a;}.cls-8{opacity:0.64;}.cls-9{fill:#ff8712;opacity:0.63;}</style></defs><g id="Layer_3" data-name="Layer 3"><polygon class="cls-1" points="0.5 186.5 127.5 4.5 194 46 0.5 186.5"/><polygon class="cls-1" points="139 0 245 69 455 69 339 0 139 0"/><polygon class="cls-1" points="369 81 272 277 292 118.5 257 81 369 81"/><polygon class="cls-1" points="386 81 176 482 397 259 455 81 386 81"/><polygon class="cls-1" points="234.499 441.119 160.878 560.341 190.023 574.036 234.499 441.119"/><polygon class="cls-1" points="226.008 486.571 199.84 572.129 224.41 562.264 226.008 486.571"/><polygon class="cls-1" points="195.446 586.225 195 631.134 223.2 603.246 228.47 572.681 195.446 586.225"/><polygon class="cls-1" points="190.293 633.503 187.183 590.886 151.386 574.409 118.524 594.033 142.238 632.213 190.293 633.503"/><polygon class="cls-1" points="148.469 569.882 118.362 587.953 141.387 538.659 148.469 569.882"/><polygon class="cls-1" points="232 69 199 49 124 103 232 69"/></g><g id="Layer_4" data-name="Layer 4" class="cls-2"><polygon class="cls-3" points="455 81 176 482 397 259 455 81"/><polygon class="cls-3" points="339 0 245 69 455 69 339 0"/><polygon class="cls-3" points="128 4 119 84 0 186 57 106 128 4"/><polygon class="cls-3" points="151.386 574.409 142.238 632.213 118.524 594.033 151.386 574.409"/><polygon class="cls-3" points="195.446 586.225 213.031 598.091 195 631.134 223.2 603.246 228.47 572.681 195.446 586.225"/><path class="cls-3" d="M835,224" transform="translate(-751 -204)"/></g><g id="Layer_5" data-name="Layer 5" class="cls-4"><polygon class="cls-5" points="118.524 594.033 190.282 633.069 187.183 590.886 118.524 594.033"/><polygon class="cls-5" points="228.47 572.681 195 631.134 195.446 586.225 228.47 572.681"/><polygon class="cls-5" points="221.083 560.873 212.924 529.35 199.84 572.129 221.083 560.873"/><polygon class="cls-5" points="141.387 538.659 138.109 563.744 118.362 587.953 141.387 538.659"/><polygon class="cls-5" points="235.481 440.928 184.628 556.747 190.023 574.036 235.481 440.928"/><polygon class="cls-5" points="386 81 397 259 374.702 281.5 176 482 386 81"/><polygon class="cls-5" points="257 81 330.348 159.101 369 81 257 81"/><polygon class="cls-5" points="139 0 455 69 245 69 139 0"/><polygon class="cls-5" points="194 46 151.898 20.294 118.396 100.868 194 46"/><polygon class="cls-5" points="126.961 100.868 210.759 56.126 199 49 126.961 100.868"/><polygon class="cls-5" points="0 186 62 142 58 104 0 186"/><polygon class="cls-5" points="273.75 341.506 363.755 292.546 247.818 409.532 240.63 389.108 273.75 341.506"/><path class="cls-5" d="M1008,124" transform="translate(-751 -204)"/></g><g id="Layer_6" data-name="Layer 6" class="cls-6"><polygon class="cls-7" points="360.185 130.295 350 231.914 265.526 311.048 360.185 130.295"/><polygon class="cls-7" points="160.687 559.359 163.68 559.033 184.628 556.747 211.099 496.458 160.687 559.359"/><polygon class="cls-7" points="197.486 587.602 213.031 598.091 203.17 616.867 197.486 587.602"/><polygon class="cls-7" points="151.386 574.409 143.22 632.022 163.916 618.726 173.588 591.509 151.386 574.409"/><polygon class="cls-7" points="148.469 569.882 139.047 556.567 131.527 571.814 148.469 569.882"/><polygon class="cls-7" points="214.731 536.331 219.828 556.023 224.561 555.104 225.391 515.818 214.731 536.331"/><polygon class="cls-7" points="292 118.5 369 81 282.51 193.712 292 118.5"/><polygon class="cls-7" points="386 81 445.259 95 455 81 386 81"/><polygon class="cls-7" points="220.274 61.894 180.564 72.248 211 56 220.274 61.894"/><polygon class="cls-7" points="45 148 47 120 0 187 45 148"/><polygon class="cls-7" points="118 101 146 35 128 5 118 101"/><polygon class="cls-7" points="232 20 263 56 315.5 38.54 314 18 232 20"/><polygon class="cls-7" points="364 293 274 342 247.818 378.778 240.63 416.785 364 293"/><path class="cls-7" d="M794,317" transform="translate(-751 -204)"/><polygon class="cls-7" points="61.117 133.614 59.684 120 86 112 61.117 133.614"/><polygon class="cls-7" points="176 482 204.887 426.839 204.887 452.851 176 482"/></g><g id="Layer_7" data-name="Layer 7" class="cls-8"><polygon class="cls-9" points="85.667 112.045 118.706 84.028 124 37 59.636 120.049 85.667 112.045"/></g></svg>