<svg id="Orange" xmlns="http://www.w3.org/2000/svg" viewBox="0 0 454.5 633.5034"><defs><style>.cls-1{fill:#b0b0b0;}.cls-2{fill:#dda424;}</style></defs><g id="Layer_3_copy" data-name="Layer 3 copy"><polygon class="cls-1" points="0 186.5 127 4.5 193.5 46 0 186.5"/><polygon class="cls-1" points="138.5 0 244.5 69 454.5 69 338.5 0 138.5 0"/><polygon class="cls-1" points="368.5 81 271.5 277 291.5 118.5 256.5 81 368.5 81"/><polygon class="cls-1" points="385.5 81 175.5 482 396.5 259 454.5 81 385.5 81"/><polygon class="cls-1" points="233.999 441.119 160.378 560.341 189.523 574.036 233.999 441.119"/><polygon class="cls-1" points="225.508 486.571 199.34 572.129 223.91 562.264 225.508 486.571"/><polygon class="cls-1" points="194.946 586.225 194.5 631.134 222.7 603.246 227.97 572.681 194.946 586.225"/><polygon class="cls-1" points="189.793 633.503 186.683 590.886 150.886 574.409 118.024 594.033 141.738 632.213 189.793 633.503"/><polygon class="cls-1" points="147.969 569.882 117.862 587.953 140.887 538.659 147.969 569.882"/><polygon class="cls-1" points="231.5 69 198.5 49 123.5 103 231.5 69"/></g><g id="Layer_3" data-name="Layer 3"><polygon class="cls-2" points="0 186.5 127 4.5 193.5 46 0 186.5"/><polygon class="cls-2" points="138.5 0 244.5 69 454.5 69 338.5 0 138.5 0"/><polygon class="cls-2" points="368.5 81 271.5 277 291.5 118.5 256.5 81 368.5 81"/><polygon class="cls-2" points="385.5 81 175.5 482 396.5 259 454.5 81 385.5 81"/><polygon class="cls-2" points="233.999 441.119 160.378 560.341 189.523 574.036 233.999 441.119"/><polygon class="cls-2" points="225.508 486.571 199.34 572.129 223.91 562.264 225.508 486.571"/><polygon class="cls-2" points="194.946 586.225 194.5 631.134 222.7 603.246 227.97 572.681 194.946 586.225"/><polygon class="cls-2" points="189.793 633.503 186.683 590.886 150.886 574.409 118.024 594.033 141.738 632.213 189.793 633.503"/><polygon class="cls-2" points="147.969 569.882 117.862 587.953 140.887 538.659 147.969 569.882"/><polygon class="cls-2" points="231.5 69 198.5 49 123.5 103 231.5 69"/></g></svg>