<svg id="Orange" xmlns="http://www.w3.org/2000/svg" viewBox="0 0 455 633.5034"><defs><style>.cls-1{fill:#b0b0b0;}.cls-2{fill:#dda424;}.cls-3{opacity:0.36;}.cls-4{fill:#a11dd8;}</style></defs><g id="Layer_3_copy" data-name="Layer 3 copy"><polygon class="cls-1" points="0.5 186.5 127.5 4.5 194 46 0.5 186.5"/><polygon class="cls-1" points="139 0 245 69 455 69 339 0 139 0"/><polygon class="cls-1" points="369 81 272 277 292 118.5 257 81 369 81"/><polygon class="cls-1" points="386 81 176 482 397 259 455 81 386 81"/><polygon class="cls-1" points="234.499 441.119 160.878 560.341 190.023 574.036 234.499 441.119"/><polygon class="cls-1" points="226.008 486.571 199.84 572.129 224.41 562.264 226.008 486.571"/><polygon class="cls-1" points="195.446 586.225 195 631.134 223.2 603.246 228.47 572.681 195.446 586.225"/><polygon class="cls-1" points="190.293 633.503 187.183 590.886 151.386 574.409 118.524 594.033 142.238 632.213 190.293 633.503"/><polygon class="cls-1" points="148.469 569.882 118.362 587.953 141.387 538.659 148.469 569.882"/><polygon class="cls-1" points="232 69 199 49 124 103 232 69"/></g><g id="Layer_3" data-name="Layer 3"><polygon class="cls-2" points="0.5 186.5 127.5 4.5 194 46 0.5 186.5"/><polygon class="cls-2" points="139 0 245 69 455 69 339 0 139 0"/><polygon class="cls-2" points="369 81 272 277 292 118.5 257 81 369 81"/><polygon class="cls-2" points="386 81 176 482 397 259 455 81 386 81"/><polygon class="cls-2" points="234.499 441.119 160.878 560.341 190.023 574.036 234.499 441.119"/><polygon class="cls-2" points="226.008 486.571 199.84 572.129 224.41 562.264 226.008 486.571"/><polygon class="cls-2" points="195.446 586.225 195 631.134 223.2 603.246 228.47 572.681 195.446 586.225"/><polygon class="cls-2" points="190.293 633.503 187.183 590.886 151.386 574.409 118.524 594.033 142.238 632.213 190.293 633.503"/><polygon class="cls-2" points="148.469 569.882 118.362 587.953 141.387 538.659 148.469 569.882"/><polygon class="cls-2" points="232 69 199 49 124 103 232 69"/></g><g id="Layer_4" data-name="Layer 4" class="cls-3"><polygon class="cls-4" points="455 81 176 482 397 259 455 81"/><polygon class="cls-4" points="339 0 245 69 455 69 339 0"/><polygon class="cls-4" points="128 4 119 84 0 186 57 106 128 4"/><polygon class="cls-4" points="151.386 574.409 142.238 632.213 118.524 594.033 151.386 574.409"/><polygon class="cls-4" points="195.446 586.225 213.031 598.091 195 631.134 223.2 603.246 228.47 572.681 195.446 586.225"/><path class="cls-4" d="M835,224" transform="translate(-751 -204)"/></g></svg>