<svg id="Green" xmlns="http://www.w3.org/2000/svg" viewBox="0 0 454.5 631.5098"><defs><style>.cls-1{fill:#292929;}</style></defs><g id="Layer_3" data-name="Layer 3"><polygon class="cls-1" points="0 186.5 127 4.5 193.5 46 0 186.5"/><polygon class="cls-1" points="138.5 0 244.5 69 454.5 69 338.5 0 138.5 0"/><polygon class="cls-1" points="368.5 81 271.5 277 291.5 118.5 256.5 81 368.5 81"/><polygon class="cls-1" points="385.5 81 175.5 482 396.5 259 454.5 81 385.5 81"/><polygon class="cls-1" points="234.078 439.16 160.364 558.325 189.499 572.042 234.078 439.16"/><polygon class="cls-1" points="225.553 484.605 199.317 570.143 223.895 560.297 225.553 484.605"/><polygon class="cls-1" points="194.913 584.236 194.431 629.144 222.654 601.278 227.947 570.717 194.913 584.236"/><polygon class="cls-1" points="189.723 631.51 186.646 588.89 150.861 572.385 117.985 591.984 141.669 630.182 189.723 631.51"/><polygon class="cls-1" points="147.948 567.855 117.827 585.903 140.89 536.628 147.948 567.855"/><polygon class="cls-1" points="231.5 69 198.5 49 123.5 103 231.5 69"/></g></svg>