<svg id="Green" xmlns="http://www.w3.org/2000/svg" viewBox="0 0 186.2915 324.25104"><g id="base"><path d="M1857.2915,627.251l-51.47607-123.26056q13.50457,13.90887,27.00928,27.81781-14.78522-23.07962-29.57032-46.1593,22.37659,12.52651,44.75318,25.053-24.5127-22.38574-49.02551-44.77155l5.92114-2.82587-11.02136-22.09387,2.72754-1.87646-5.78516-19.74042Q1793.41205,413.19691,1796,407l-9.79468-10.70361q.92982-3.68208,1.85938-7.36408,6.10364,2.44821,12.20752,4.89649l8.61914-37.00965-13.6084-16.517q2.4137-14.82274,4.82739-29.64544L1764,303h-91q-.99995,105-2,210,8.49995,5.5,17,11,20.00005,6,40,12,3.54767-3.23255,7.09521-6.46515l1.40284.799,49.74133,78.07569-22.1886-93.19788Z" transform="translate(-1671 -303)" style="fill:#7ccd59"/></g><g id="blend"><path d="M1734.57361,473.16943l10.56091-21.43066L1857.2915,627.251Q1824.64582,548.12549,1792,469q6.45155-2.94772,12.9032-5.89545L1794,441l-12,1q.132,2.798.26392,5.596L1768,411q9.50005,8.5,19,17l3.82178-8.60089.00244-.00531Q1793.41205,413.19691,1796,407l-18,3q-2.49995-9-5-18,10.33392-19.37388,20.668-38.74774-7.64832-4.4533-15.29688-8.90656l5.04041-9.84387,12.20593,6.37213a143.53405,143.53405,0,0,1-11.37451-13.72247Q1781.96693,324.02923,1780,321q-8.00005-9-16-18l-.00012,11.989L1764,324q8.00005,5,16,10-.50005,2.5-1,5-17.49995,19-35,38,14.00005,7.5,28,15-2.00005,9.5-4,19l-25,7q-6.50005,27.5-13,55l-33-4q21.54876,33.27324,43.09766,66.54645l45.56848,73.09949-42.4939-130.70813Z" transform="translate(-1671 -303)" style="fill:#29c08b"/><path d="M1688,530q14.00005,12.5,28,25,6.50005-8.5,13-17Q1708.50006,534,1688,530Z" transform="translate(-1671 -303)" style="fill:#29c08b"/></g><g id="n5"><path d="M1688,530q9.50005-13,19-26,.99995-2.5,2-5l-18,15Q1689.5,522,1688,530Z" transform="translate(-1671 -303)" style="fill:#54cd8e"/><polygon points="38 196 26.653 167 42.98 192 38 196" style="fill:#54cd8e"/><polygon points="59 170 71.973 114.156 71 156 59 170 59 170" style="fill:#54cd8e"/><polygon points="59 170 38 167 52 166 59 170" style="fill:#54cd8e"/><path d="M1781,337.225,1744,377q14.00005-20.5,28-41-3.99995-6-8-12,9.99995,5,20,10Z" transform="translate(-1671 -303)" style="fill:#54cd8e"/><polygon points="95 92 91 102 72 113 73 115.275 97 108 101 89 73 74 95 92" style="fill:#54cd8e"/><path d="M1764,324q.99995-9,2-18,.99995.5,2,1l21,1q-.50005-1.5-1-3l-24-2Z" transform="translate(-1671 -303)" style="fill:#54cd8e"/></g><g id="n4"><path d="M1707,504l19,17,3-3-5-11-23.89246-33.59882Q1704.55372,486.20057,1709,499,1708.00006,501.5,1707,504Z" transform="translate(-1671 -303)" style="fill:#3dc071"/><path d="M1768,494l14,14,7,13,18,45-57-68q-5.00005-18-10-36,.99995-2,2-4Q1754.99995,476,1768,494Z" transform="translate(-1671 -303)" style="fill:#3dc071"/><polygon points="186 324 137.042 265.072 166 292 186 324" style="fill:#3dc071"/><polygon points="115 306 100 241 93 239 115 306" style="fill:#3dc071"/><path d="M1804,486l44,25-51-35-9-13q3.28069,6.50565,6.56128,13.01132L1819,510Z" transform="translate(-1671 -303)" style="fill:#3dc071"/><path d="M1833,532q-15.50005-18.5-31-37,8.49995,7.5,17,15Z" transform="translate(-1671 -303)" style="fill:#3dc071"/></g><g id="n3"><path d="M1805,463l-22-14q2.49995,7,5,14Z" transform="translate(-1671 -303)" style="fill:#00b587"/><path d="M1819,510q-8.49995-7.5-17-15-3.71942-9.49434-7.43872-18.98868Z" transform="translate(-1671 -303)" style="fill:#00b587"/><polygon points="165.875 292.301 135 263 118 218 165.875 292.301" style="fill:#00b587"/><path d="M1716,555V535q-6.99995-4-14-8Q1708.99995,541,1716,555Z" transform="translate(-1671 -303)" style="fill:#00b587"/><polygon points="99.06 256.411 77.064 245.359 68 231 93 239 99.06 256.411" style="fill:#00b587"/><path d="M1752,538q-11.49995-10-23-20-9.99995-24-20-48l18.64551,19.2995Z" transform="translate(-1671 -303)" style="fill:#00b587"/><polygon points="107.153 201.005 97 191 87 157.886 107.153 201.005" style="fill:#00b587"/><polygon points="107 107 119.824 116.394 125 104 107 107" style="fill:#00b587"/><polygon points="111 139 97 108 116 125 111 139" style="fill:#00b587"/><polygon points="111 71 130 91 138 54 126.652 51.029 111 71" style="fill:#00b587"/><path d="M1761.47485,379.65964,1744,377q20.00005-21.5,40-43Q1772.73737,356.82982,1761.47485,379.65964Z" transform="translate(-1671 -303)" style="fill:#00b587"/><polygon points="111.22 159.525 86 158 92 132 105.579 140.701 111.22 159.525" style="fill:#00b587"/><path d="M1764,324.368,1780,321q8.00005,10,16,20Q1780.00006,332.684,1764,324.368Z" transform="translate(-1671 -303)" style="fill:#00b587"/></g><g id="n2"><polygon points="126 136 116 125 120 116 126 136" style="fill:#96cd38"/><polygon points="137.891 53.819 125 38 113 31 126.652 51.029 137.891 53.819" style="fill:#96cd38"/><polygon points="90 77 130 91 111 71 90 77" style="fill:#96cd38"/><polygon points="102 89 117 95 125 104 102 89" style="fill:#96cd38"/><path d="M1788,463l-5.77954-1.02954L1788,480l14,15Q1795.00006,479,1788,463Z" transform="translate(-1671 -303)" style="fill:#96cd38"/><polygon points="93.051 212.212 100 241 93 239 78.799 195.087 93.051 212.212" style="fill:#96cd38"/><path d="M1728.74719,518.1319,1726,520l3,18q3.27612-4.785,6.55212-9.57007Z" transform="translate(-1671 -303)" style="fill:#96cd38"/><polygon points="131 192 135.051 201.791 162 229 131 192" style="fill:#96cd38"/><polygon points="127.982 162.93 177 208 145 186 122.989 165.319 127.982 162.93" style="fill:#96cd38"/><path d="M1800,311q-9.99995,5-20,10-6.99995-7.5-14-15l22-1Z" transform="translate(-1671 -303)" style="fill:#96cd38"/></g><g id="n1"><path d="M1726,520l3,18q-20.49995-4-41-8,9.50005-13,19-26Q1716.50006,512,1726,520Z" transform="translate(-1671 -303)" style="fill:#c7f634"/><polygon points="93 239 81 235 84 211 93 239" style="fill:#c7f634"/><polygon points="99 256 115 306 77 245 99 256" style="fill:#c7f634"/><polygon points="117.331 177.376 131 192 155 250 118 218 111 205 117.331 177.376" style="fill:#c7f634"/><path d="M1788,463q14.00005,13,28,26l-19-13Z" transform="translate(-1671 -303)" style="fill:#c7f634"/><polygon points="116 125 126 136 111 139 116 125" style="fill:#c7f634"/><polygon points="125 104 102 89 107 107 125 104" style="fill:#c7f634"/><polygon points="113 31 127 51 111 71 90 77 113 31" style="fill:#c7f634"/><polygon points="97 191 72 113 71 156 97 191" style="fill:#c7f634"/><path d="M1740,462l9,35q-9.50005-11.5-19-23Q1735.00006,468,1740,462Z" transform="translate(-1671 -303)" style="fill:#c7f634"/><path d="M1697,469l12,1q9.99995,24,20,48Q1713.00006,493.5,1697,469Z" transform="translate(-1671 -303)" style="fill:#c7f634"/><polygon points="111.22 157.886 97 108 112 146 111.22 157.886" style="fill:#c7f634"/><path d="M1800,311q-9.99995,5-20,10,7.64154,9.65107,15.283,19.30212Z" transform="translate(-1671 -303)" style="fill:#c7f634"/></g></svg>