<svg id="Blue" xmlns="http://www.w3.org/2000/svg" viewBox="0 0 186.2915 329.25104"><g id="base_copy" data-name="base copy"><path d="M1671,627.251l51.47607-123.26056q-13.50458,13.90887-27.00927,27.81781,14.78522-23.07963,29.57031-46.1593-22.37659,12.52651-44.75317,25.053,24.51268-22.38574,49.02551-44.77155l-5.92114-2.82587,11.02136-22.09387-2.72754-1.87646,5.78516-19.74042q-2.58783-6.19689-5.17579-12.3938l9.79468-10.70361q-.9298-3.68208-1.85937-7.36408-6.10365,2.44821-12.20752,4.89649l-8.61914-37.00965,13.60839-16.517q-2.41369-14.82274-4.82739-29.64544Q1743.23628,304.32827,1758.2915,298l98,1q.50007,124.5,1,249l-19.25048,1.07428-38.90479-6.30719-5.93994-13.23224-1.40283.799-49.74134,78.07569,22.1886-93.19788Z" transform="translate(-1671 -298)" style="fill:#21ced1"/></g><g id="blend_copy" data-name="blend copy"><path d="M1793.7179,473.16943,1783.157,451.73877,1671,627.251q32.64568-79.12555,65.2915-158.251-6.45153-2.94772-12.90319-5.89545L1734.2915,441l12,1q-.132,2.798-.26391,5.596L1760.2915,411q-9.50006,8.5-19,17-1.91088-4.30045-3.82177-8.60089l-.00244-.00531q-2.58783-6.19689-5.17579-12.3938l18,3q2.49994-9,5-18-10.33392-19.37388-20.668-38.74774,7.64831-4.4533,15.29687-8.90656l-5.04041-9.84387-12.20593,6.37213a143.53256,143.53256,0,0,0,11.37451-13.72247q2.276-3.12227,4.24292-6.15149,8.00007-9,16-18c0,.16232.00013,11.8266.00013,11.989L1764.2915,324q-8.00006,5-16,10,.50007,2.5,1,5,17.49994,19,35,38-14.00006,7.5-28,15,2.00007,9.5,4,19l25,7q6.50007,27.5,13,55l33-4q-21.54876,33.27324-43.09765,66.54645l-45.56848,73.09949,42.49389-130.70813Z" transform="translate(-1671 -298)" style="fill:#29c0a7"/><path d="M1843.2915,516q-2.49993,16.5-5,33l-40-6Z" transform="translate(-1671 -298)" style="fill:#29c0a7"/></g><g id="n5_copy" data-name="n5 copy"><path d="M1843.2915,516l-22-12q-.99993-2.5-2-5,9.99994,4,20,8Q1841.29157,511.5,1843.2915,516Z" transform="translate(-1671 -298)" style="fill:#54cda7"/><polygon points="148.292 201 159.638 172 143.312 197 148.292 201" style="fill:#54cda7"/><polygon points="127.292 175 114.318 119.156 115.292 161 127.292 175 127.292 175" style="fill:#54cda7"/><polygon points="127.292 175 148.292 172 134.292 171 127.292 175" style="fill:#54cda7"/><path d="M1747.2915,337.225l37,39.775q-14.00006-20.5-28-41,3.99994-6,8-12-9.99993,5-20,10Z" transform="translate(-1671 -298)" style="fill:#54cda7"/><polygon points="91.292 97 95.292 107 114.292 118 113.292 120.275 89.292 113 85.292 94 113.292 79 91.292 97" style="fill:#54cda7"/><path d="M1764.2915,324q-.99993-9-2-18l-22-1,24-2Z" transform="translate(-1671 -298)" style="fill:#54cda7"/></g><g id="n4_copy" data-name="n4 copy"><path d="M1821.2915,504l-19,17-3-3,5-11,23.89246-33.59882Q1823.7378,486.20057,1819.2915,499,1820.29144,501.5,1821.2915,504Z" transform="translate(-1671 -298)" style="fill:#3dc088"/><path d="M1760.2915,494l-14,14-7,13-18,45,57-68q5.00007-18,10-36-.99993-2-2-4Q1773.29157,476,1760.2915,494Z" transform="translate(-1671 -298)" style="fill:#3dc088"/><polygon points="0.292 329 49.249 270.072 20.292 297 0.292 329" style="fill:#3dc088"/><polygon points="71.292 311 86.292 246 93.292 244 71.292 311" style="fill:#3dc088"/><path d="M1724.2915,486l-44,25,51-35,9-13q-3.2807,6.50565-6.56128,13.01132L1709.2915,510Z" transform="translate(-1671 -298)" style="fill:#3dc088"/><path d="M1695.2915,532q15.50007-18.5,31-37-8.49993,7.5-17,15Z" transform="translate(-1671 -298)" style="fill:#3dc088"/></g><g id="n3_copy" data-name="n3 copy"><path d="M1723.2915,463l22-14q-2.49993,7-5,14Z" transform="translate(-1671 -298)" style="fill:#00b5a8"/><path d="M1709.2915,510q8.49994-7.5,17-15,3.71943-9.49434,7.43872-18.98868Z" transform="translate(-1671 -298)" style="fill:#00b5a8"/><polygon points="20.417 297.301 51.292 268 68.292 223 20.417 297.301" style="fill:#00b5a8"/><polygon points="167.292 251 145.913 233.827 158.097 226.517 167.292 251" style="fill:#00b5a8"/><polygon points="87.232 261.411 109.228 250.359 118.292 236 93.292 244 87.232 261.411" style="fill:#00b5a8"/><path d="M1776.2915,538q11.49994-10,23-20,9.99994-24,20-48l-18.6455,19.2995Z" transform="translate(-1671 -298)" style="fill:#00b5a8"/><polygon points="79.139 206.005 89.292 196 99.292 162.886 79.139 206.005" style="fill:#00b5a8"/><polygon points="79.292 112 66.467 121.394 61.292 109 79.292 112" style="fill:#00b5a8"/><polygon points="75.292 144 89.292 113 70.292 130 75.292 144" style="fill:#00b5a8"/><polygon points="75.292 76 56.292 96 48.292 59 59.64 56.029 75.292 76" style="fill:#00b5a8"/><path d="M1766.81665,379.65964,1784.2915,377q-20.00006-21.5-40-43Q1755.55414,356.82982,1766.81665,379.65964Z" transform="translate(-1671 -298)" style="fill:#00b5a8"/><polygon points="75.071 164.525 100.292 163 94.292 137 80.713 145.701 75.071 164.525" style="fill:#00b5a8"/><path d="M1764.2915,324.368l-16-3.368q-8.00006,10-16,20Q1748.29144,332.684,1764.2915,324.368Z" transform="translate(-1671 -298)" style="fill:#00b5a8"/></g><g id="n2_copy" data-name="n2 copy"><polygon points="60.292 141 70.292 130 66.292 121 60.292 141" style="fill:#43cd66"/><polygon points="48.4 58.819 61.292 43 73.292 36 59.64 56.029 48.4 58.819" style="fill:#43cd66"/><polygon points="96.292 82 56.292 96 75.292 76 96.292 82" style="fill:#43cd66"/><polygon points="84.292 94 69.292 100 61.292 109 84.292 94" style="fill:#43cd66"/><path d="M1740.2915,463q2.88978-.51475,5.77954-1.02954L1740.2915,480l-14,15Q1733.29144,479,1740.2915,463Z" transform="translate(-1671 -298)" style="fill:#43cd66"/><polygon points="93.241 217.212 86.292 246 93.292 244 107.492 200.087 93.241 217.212" style="fill:#43cd66"/><polygon points="128.544 220.132 131.292 222 127.292 245 121.739 230.43 128.544 220.132" style="fill:#43cd66"/><polygon points="55.292 197 51.24 206.791 24.292 234 55.292 197" style="fill:#43cd66"/><polygon points="58.309 167.93 9.292 213 41.292 191 63.302 170.319 58.309 167.93" style="fill:#43cd66"/><path d="M1728.2915,311q9.99994,5,20,10,6.50007-7.5,13-15l-21-1Z" transform="translate(-1671 -298)" style="fill:#43cd66"/></g><g id="n1_copy" data-name="n1 copy"><path d="M1802.2915,520q-2.00006,11.5-4,23l45-27q-11.00006-6-22-12Q1811.79144,512,1802.2915,520Z" transform="translate(-1671 -298)" style="fill:#cff634"/><polygon points="93.292 244 105.292 240 102.292 216 93.292 244" style="fill:#cff634"/><polygon points="87.292 261 71.292 311 109.292 250 87.292 261" style="fill:#cff634"/><polygon points="68.961 182.376 55.292 197 31.292 255 68.292 223 75.292 210 68.961 182.376" style="fill:#cff634"/><path d="M1740.2915,463q-14.00006,13-28,26l19-13Z" transform="translate(-1671 -298)" style="fill:#cff634"/><polygon points="70.292 130 60.292 141 75.292 144 70.292 130" style="fill:#cff634"/><polygon points="61.292 109 84.292 94 79.292 112 61.292 109" style="fill:#cff634"/><polygon points="73.292 36 59.292 56 75.292 76 96.292 82 73.292 36" style="fill:#cff634"/><polygon points="89.292 196 114.292 118 115.292 161 89.292 196" style="fill:#cff634"/><path d="M1788.2915,462l-9,35q9.50007-11.5,19-23Q1793.29144,468,1788.2915,462Z" transform="translate(-1671 -298)" style="fill:#cff634"/><path d="M1831.2915,469l-12,1q-9.99993,24-20,48Q1815.29144,493.5,1831.2915,469Z" transform="translate(-1671 -298)" style="fill:#cff634"/><polygon points="75.071 162.886 89.292 113 74.292 151 75.071 162.886" style="fill:#cff634"/><path d="M1728.2915,311q9.99994,5,20,10-7.64154,9.65107-15.283,19.30212Z" transform="translate(-1671 -298)" style="fill:#cff634"/></g></svg>