<svg id="Red" xmlns="http://www.w3.org/2000/svg" viewBox="0 0 186.2915 324.25104"><g id="base_copy_3" data-name="base copy 3"><path d="M1671,627.251l51.47607-123.26056q-13.50458,13.90887-27.00927,27.81781,14.78522-23.07963,29.57031-46.1593-22.37659,12.52651-44.75317,25.053,24.51268-22.38574,49.02551-44.77155l-5.92114-2.82587,11.02136-22.09387-2.72754-1.87646,5.78516-19.74042q-2.58783-6.19689-5.17579-12.3938l9.79468-10.70361q-.9298-3.68208-1.85937-7.36408-6.10365,2.44821-12.20752,4.89649l-8.61914-37.00965,13.60839-16.517q-2.41369-14.82274-4.82739-29.64544L1764.2915,303h91q.99994,105,2,210-8.49993,5.5-17,11-20.49993,5.5-41,11l-6.09521-5.46515-1.40283.799-49.74134,78.07569,22.1886-93.19788Z" transform="translate(-1671 -303)" style="fill:#f4514b"/></g><g id="blend_copy_3" data-name="blend copy 3"><path d="M1793.7179,473.16943,1783.157,451.73877,1671,627.251q32.64568-79.12555,65.2915-158.251-6.45153-2.94772-12.90319-5.89545L1734.2915,441l12,1q-.132,2.798-.26391,5.596L1760.2915,411q-9.50006,8.5-19,17-1.91088-4.30045-3.82177-8.60089l-.00244-.00531q-2.58783-6.19689-5.17579-12.3938l18,3q2.49994-9,5-18-10.33392-19.37388-20.668-38.74774,7.64831-4.4533,15.29687-8.90656l-5.04041-9.84387-12.20593,6.37213a143.53256,143.53256,0,0,0,11.37451-13.72247q2.276-3.12227,4.24292-6.15149,8.00007-9,16-18c0,.16232.00013,11.8266.00013,11.989L1764.2915,324q-8.00006,5-16,10,.50007,2.5,1,5,17.49994,19,35,38-14.00006,7.5-28,15,2.00007,9.5,4,19l25,7q6.50007,27.5,13,55l33-4q-21.54876,33.27324-43.09765,66.54645l-45.56848,73.09949,42.49389-130.70813Z" transform="translate(-1671 -303)" style="fill:#ff7e59"/><path d="M1840.2915,530q-14.00006,12.5-28,25-6.50006-8.5-13-17Q1819.79144,534,1840.2915,530Z" transform="translate(-1671 -303)" style="fill:#ff7e59"/></g><g id="n5_copy_3" data-name="n5 copy 3"><path d="M1840.2915,530q-9.50006-13-19-26-.99993-2.5-2-5l18,15Q1838.7915,522,1840.2915,530Z" transform="translate(-1671 -303)" style="fill:#e2534f"/><polygon points="148.292 196 159.638 167 143.312 192 148.292 196" style="fill:#e2534f"/><polygon points="127.292 170 114.318 114.156 115.292 156 127.292 170 127.292 170" style="fill:#e2534f"/><polygon points="127.292 170 148.292 167 134.292 166 127.292 170" style="fill:#e2534f"/><path d="M1747.2915,337.225l37,39.775q-14.00006-20.5-28-41,3.99994-6,8-12-9.99993,5-20,10Z" transform="translate(-1671 -303)" style="fill:#e2534f"/><polygon points="91.292 92 95.292 102 114.292 113 113.292 115.275 89.292 108 85.292 89 113.292 74 91.292 92" style="fill:#e2534f"/><path d="M1764.2915,324q-.99993-9-2-18l-3,1-16-1-3-1,24-2Z" transform="translate(-1671 -303)" style="fill:#e2534f"/></g><g id="n4_copy_3" data-name="n4 copy 3"><path d="M1821.2915,504l-19,17-3-3,5-11,23.89246-33.59882Q1823.7378,486.20057,1819.2915,499,1820.29144,501.5,1821.2915,504Z" transform="translate(-1671 -303)" style="fill:#da5636"/><path d="M1760.2915,494l-14,14-7,13-18,45,57-68q5.00007-18,10-36-.99993-2-2-4Q1773.29157,476,1760.2915,494Z" transform="translate(-1671 -303)" style="fill:#da5636"/><polygon points="0.292 324 49.249 265.072 20.292 292 0.292 324" style="fill:#da5636"/><polygon points="71.292 306 86.292 241 93.292 239 71.292 306" style="fill:#da5636"/><path d="M1724.2915,486l-44,25,51-35,9-13q-3.2807,6.50565-6.56128,13.01132L1709.2915,510Z" transform="translate(-1671 -303)" style="fill:#da5636"/><path d="M1695.2915,532q15.50007-18.5,31-37-8.49993,7.5-17,15Z" transform="translate(-1671 -303)" style="fill:#da5636"/></g><g id="n3_copy_3" data-name="n3 copy 3"><path d="M1723.2915,463l22-14q-2.49993,7-5,14Z" transform="translate(-1671 -303)" style="fill:#d04141"/><path d="M1709.2915,510q8.49994-7.5,17-15,3.71943-9.49434,7.43872-18.98868Z" transform="translate(-1671 -303)" style="fill:#d04141"/><polygon points="20.417 292.301 51.292 263 68.292 218 20.417 292.301" style="fill:#d04141"/><path d="M1812.2915,555V535q6.99994-4,14-8Q1819.29157,541,1812.2915,555Z" transform="translate(-1671 -303)" style="fill:#d04141"/><polygon points="87.232 256.411 109.228 245.359 118.292 231 93.292 239 87.232 256.411" style="fill:#d04141"/><path d="M1776.2915,538q11.49994-10,23-20,9.99994-24,20-48l-18.6455,19.2995Z" transform="translate(-1671 -303)" style="fill:#d04141"/><polygon points="79.139 201.005 89.292 191 99.292 157.886 79.139 201.005" style="fill:#d04141"/><polygon points="79.292 107 66.467 116.394 61.292 104 79.292 107" style="fill:#d04141"/><polygon points="75.292 139 89.292 108 70.292 125 75.292 139" style="fill:#d04141"/><polygon points="75.292 71 56.292 91 48.292 54 59.64 51.029 75.292 71" style="fill:#d04141"/><path d="M1766.81665,379.65964,1784.2915,377q-20.00006-21.5-40-43Q1755.55414,356.82982,1766.81665,379.65964Z" transform="translate(-1671 -303)" style="fill:#d04141"/><polygon points="75.071 159.525 100.292 158 94.292 132 80.713 140.701 75.071 159.525" style="fill:#d04141"/><path d="M1764.2915,324.368l-16-3.368q-8.00006,10-16,20Q1748.29144,332.684,1764.2915,324.368Z" transform="translate(-1671 -303)" style="fill:#d04141"/></g><g id="n2_copy_3" data-name="n2 copy 3"><polygon points="60.292 136 70.292 125 66.292 116 60.292 136" style="fill:#ec5b4a"/><polygon points="48.4 53.819 61.292 38 73.292 31 59.64 51.029 48.4 53.819" style="fill:#ec5b4a"/><polygon points="96.292 77 56.292 91 75.292 71 96.292 77" style="fill:#ec5b4a"/><polygon points="84.292 89 69.292 95 61.292 104 84.292 89" style="fill:#ec5b4a"/><path d="M1740.2915,463q2.88978-.51475,5.77954-1.02954L1740.2915,480l-14,15Q1733.29144,479,1740.2915,463Z" transform="translate(-1671 -303)" style="fill:#ec5b4a"/><polygon points="93.241 212.212 86.292 241 93.292 239 107.492 195.087 93.241 212.212" style="fill:#ec5b4a"/><path d="M1799.54431,518.1319,1802.2915,520l-3,18q-3.27612-4.785-6.55212-9.57007Z" transform="translate(-1671 -303)" style="fill:#ec5b4a"/><polygon points="55.292 192 51.24 201.791 24.292 229 55.292 192" style="fill:#ec5b4a"/><polygon points="58.309 162.93 9.292 208 41.292 186 63.302 165.319 58.309 162.93" style="fill:#ec5b4a"/><path d="M1728.2915,311q9.99994,5,20,10,6.99994-7.5,14-15l-22-1Z" transform="translate(-1671 -303)" style="fill:#ec5b4a"/></g><g id="n1_copy_3" data-name="n1 copy 3"><path d="M1802.2915,520l-3,18q20.49994-4,41-8-9.50006-13-19-26Q1811.79144,512,1802.2915,520Z" transform="translate(-1671 -303)" style="fill:#ffbf4a"/><polygon points="93.292 239 105.292 235 102.292 211 93.292 239" style="fill:#ffbf4a"/><polygon points="87.292 256 71.292 306 109.292 245 87.292 256" style="fill:#ffbf4a"/><polygon points="68.961 177.376 55.292 192 31.292 250 68.292 218 75.292 205 68.961 177.376" style="fill:#ffbf4a"/><path d="M1740.2915,463q-14.00006,13-28,26l19-13Z" transform="translate(-1671 -303)" style="fill:#ffbf4a"/><polygon points="70.292 125 60.292 136 75.292 139 70.292 125" style="fill:#ffbf4a"/><polygon points="61.292 104 84.292 89 79.292 107 61.292 104" style="fill:#ffbf4a"/><polygon points="73.292 31 59.292 51 75.292 71 96.292 77 73.292 31" style="fill:#ffbf4a"/><polygon points="89.292 191 114.292 113 115.292 156 89.292 191" style="fill:#ffbf4a"/><path d="M1788.2915,462l-9,35q9.50007-11.5,19-23Q1793.29144,468,1788.2915,462Z" transform="translate(-1671 -303)" style="fill:#ffbf4a"/><path d="M1831.2915,469l-12,1q-9.99993,24-20,48Q1815.29144,493.5,1831.2915,469Z" transform="translate(-1671 -303)" style="fill:#ffbf4a"/><polygon points="75.071 157.886 89.292 108 74.292 146 75.071 157.886" style="fill:#ffbf4a"/><path d="M1728.2915,311q9.99994,5,20,10-7.64154,9.65107-15.283,19.30212Z" transform="translate(-1671 -303)" style="fill:#ffbf4a"/></g></svg>